{"glyphs":{"0":{"ha":688,"x_min":3,"x_max":548,"o":"m 541 826 q 546 799 543 817 q 548 771 548 782 l 548 205 q 519 94 548 144 q 438 14 491 44 q 309 -16 385 -16 l 241 -16 q 113 14 166 -16 q 31 94 59 44 q 3 205 3 144 l 3 767 q 31 878 3 828 q 113 958 59 928 q 241 987 166 987 l 309 987 q 463 942 403 987 q 541 826 522 897 m 201 660 l 201 537 q 349 653 262 581 l 349 660 q 345 759 349 724 q 327 808 342 794 q 275 822 311 822 q 224 808 239 822 q 205 759 208 794 q 201 660 201 724 m 349 417 q 201 316 264 356 l 201 312 q 205 213 201 248 q 223 164 208 178 q 275 150 239 150 q 327 164 312 150 q 346 213 342 178 q 349 312 349 248 l 349 417 z "},"1":{"ha":342,"x_min":-45,"x_max":243,"o":"m 28 972 l 228 972 l 243 0 l 45 0 l 60 839 l -45 804 l 28 971 l 28 972 z "},"2":{"ha":628,"x_min":-12,"x_max":532,"o":"m 293 988 q 422 958 368 988 q 504 878 475 928 q 532 767 532 828 l 532 617 q 366 471 456 546 q 208 342 276 396 l 208 150 l 209 150 l 351 160 l 349 366 l 508 378 l 532 0 l 9 0 l 9 420 l 69 467 q 207 578 129 515 q 348 695 286 642 l 348 701 q 348 716 348 707 q 347 736 347 726 q 327 808 345 793 q 266 824 310 823 l 261 824 q 218 817 234 823 q 194 783 201 810 q 187 693 187 756 l -12 693 l -12 767 q 16 878 -12 828 q 98 958 44 928 q 227 987 151 987 l 293 988 z "},"3":{"ha":640,"x_min":4,"x_max":548,"o":"m 25 972 l 548 972 l 548 617 q 463 540 508 579 q 525 464 504 509 q 547 366 547 419 l 547 191 l 546 191 q 514 86 543 133 q 433 12 485 39 q 308 -16 380 -16 l 243 -16 q 114 14 168 -16 q 32 94 60 44 q 4 205 4 143 l 4 274 l 207 274 l 207 231 l 208 205 q 228 164 212 176 q 275 150 243 153 q 336 181 323 153 q 347 271 347 207 l 347 296 q 341 375 347 347 q 312 413 335 404 q 210 332 250 363 l 170 300 l 62 450 l 113 490 q 233 587 164 530 q 364 695 302 643 l 364 824 l 205 812 l 208 645 l 50 633 l 25 972 z "},"4":{"ha":583,"x_min":3,"x_max":484,"o":"m 284 537 l 484 537 l 484 0 l 284 0 l 298 193 l 3 193 l 3 545 l 26 570 q 87 643 50 595 q 166 758 123 690 q 227 872 208 825 q 252 944 247 920 l 258 969 l 477 969 l 462 926 q 419 824 446 883 q 360 711 393 764 q 291 620 327 659 q 229 557 254 580 l 202 534 l 202 342 l 203 342 l 308 350 l 284 537 z "},"5":{"ha":640,"x_min":7,"x_max":549,"o":"m 549 366 l 549 191 q 517 86 546 133 q 435 12 488 39 q 311 -16 383 -16 l 245 -16 q 117 14 170 -16 q 35 94 63 44 q 7 205 7 143 l 7 274 l 210 274 l 210 205 q 230 164 215 176 q 278 150 245 153 q 339 181 326 153 q 350 271 350 207 l 350 304 q 337 393 350 367 q 272 421 324 420 l 271 422 l 231 422 l 28 414 l 28 972 l 531 972 l 507 633 l 349 645 l 351 812 l 231 821 l 231 587 l 311 587 q 439 557 386 587 q 521 477 493 527 q 549 366 549 427 z "},"6":{"ha":639,"x_min":5,"x_max":551,"o":"m 245 -16 q 116 14 169 -16 q 34 94 62 44 q 5 205 5 144 l 5 767 q 34 878 5 828 q 116 958 62 928 q 245 987 169 987 l 312 987 q 441 958 387 987 q 523 878 494 928 q 551 767 551 829 l 551 698 l 348 698 l 347 767 q 327 807 342 795 q 278 822 311 819 q 214 787 227 819 q 205 689 205 759 l 205 663 q 245 666 224 666 l 312 666 q 441 636 387 666 q 523 556 494 606 q 551 446 551 507 l 551 205 q 523 94 551 144 q 441 14 494 44 q 312 -16 387 -16 l 245 -16 m 205 312 q 208 214 205 248 q 227 166 211 180 q 278 150 243 153 q 330 166 314 153 q 348 214 345 180 q 351 312 351 248 l 351 338 q 348 436 351 402 q 330 484 345 470 q 278 500 314 498 q 227 484 243 498 q 208 436 211 470 q 205 338 205 402 l 205 312 z "},"7":{"ha":600,"x_min":6,"x_max":555,"o":"m 482 368 l 364 380 q 345 211 349 298 q 342 94 342 145 q 342 39 342 77 l 343 0 l 132 0 l 134 64 q 141 214 136 127 q 158 377 147 300 l 6 368 l 6 536 l 198 536 q 258 699 226 619 q 309 822 290 778 l 6 804 l 6 972 l 510 972 l 510 789 l 494 753 q 454 659 477 716 q 408 536 431 602 l 555 536 l 482 368 z "},"8":{"ha":640,"x_min":3,"x_max":549,"o":"m 549 633 q 503 496 549 555 q 549 358 549 436 l 548 183 q 513 82 543 127 q 432 11 484 37 q 310 -16 380 -16 l 243 -16 q 114 14 167 -16 q 32 94 60 44 q 3 205 3 144 l 3 368 l 4 368 q 50 496 7 441 q 3 633 3 555 l 3 767 q 32 878 3 828 q 114 958 60 928 q 243 987 167 987 l 310 987 q 439 958 385 987 q 520 878 492 928 q 549 767 549 829 l 549 633 m 276 822 q 216 793 229 819 q 203 706 203 770 l 203 694 q 216 607 203 631 q 273 578 229 582 l 279 578 q 338 608 327 581 q 347 691 347 631 l 347 715 l 345 767 q 325 807 340 795 q 276 822 309 819 m 276 150 q 338 180 324 153 q 350 274 350 206 l 350 289 q 338 383 350 356 q 279 413 326 410 l 273 413 q 214 382 227 410 q 203 295 203 357 l 203 269 q 215 179 203 205 q 276 150 228 153 z "},"9":{"ha":639,"x_min":5,"x_max":550,"o":"m 311 987 q 440 958 387 987 q 522 878 493 928 q 550 767 550 828 l 550 205 q 522 94 550 144 q 440 14 493 44 q 311 -16 387 -16 l 243 -16 q 115 14 168 -16 q 33 94 61 44 q 5 205 5 143 l 5 274 l 208 274 l 208 205 q 229 164 213 176 q 277 150 244 152 q 341 185 329 153 q 351 282 351 213 l 351 308 q 311 306 332 306 l 243 306 q 115 336 168 306 q 33 415 61 366 q 5 526 5 465 l 5 767 q 33 878 5 828 q 115 958 61 928 q 243 987 168 987 l 311 987 m 351 660 q 348 758 351 724 q 329 805 345 791 q 277 822 313 819 q 226 805 241 819 q 207 758 210 791 q 203 660 203 724 l 203 633 q 207 536 203 570 q 226 488 210 502 q 277 471 241 474 q 329 488 313 474 q 348 536 345 502 q 351 633 351 570 l 351 660 z "},"\u0000":{"ha":0,"x_min":0,"x_max":0,"o":""},"\u001d":{"ha":0,"x_min":0,"x_max":0,"o":""}," ":{"ha":311,"x_min":0,"x_max":0,"o":""}," ":{"ha":311,"x_min":0,"x_max":0,"o":""},"!":{"ha":338,"x_min":3,"x_max":254,"o":"m 216 296 l 41 296 l 29 972 l 229 972 l 216 296 m 129 233 l 254 108 l 129 -18 l 3 108 l 129 233 z "},"\"":{"ha":580,"x_min":22,"x_max":544,"o":"m 419 669 q 400 752 419 715 q 356 817 380 790 q 313 859 332 844 l 294 873 l 419 999 l 544 873 l 525 859 q 481 817 506 844 q 438 752 457 790 q 419 669 419 715 m 147 669 q 128 752 147 715 q 84 817 109 790 q 41 859 60 844 l 22 873 l 147 999 l 272 873 l 253 859 q 210 817 234 844 q 166 752 185 790 q 147 669 147 715 z "},"#":{"ha":760,"x_min":11,"x_max":707,"o":"m 446 573 l 707 598 l 707 499 l 430 522 l 420 488 l 416 445 l 667 469 l 667 370 l 410 392 l 387 160 l 338 170 l 290 180 l 352 397 l 339 397 l 286 393 l 261 146 l 163 165 l 227 389 l 11 370 l 11 469 l 244 447 l 254 481 l 258 516 l 51 499 l 51 598 l 265 578 l 290 808 l 339 798 l 388 789 l 323 572 l 378 567 l 389 568 l 417 823 l 515 804 l 446 573 m 380 496 l 384 526 l 378 527 l 308 521 l 294 473 l 290 442 l 339 437 l 365 440 l 380 496 z "},"$":{"ha":633,"x_min":3,"x_max":532,"o":"m 294 575 l 532 406 l 532 222 q 475 73 532 135 q 315 1 418 11 l 317 -48 l 218 -48 l 220 1 l 3 1 l 3 347 l 163 336 l 182 165 q 227 164 207 165 l 231 164 l 242 367 l 3 542 l 3 751 q 60 900 3 838 q 220 970 117 962 l 218 1017 l 317 1017 l 315 972 l 524 972 l 500 593 l 340 605 l 340 808 l 307 808 l 294 575 m 189 731 q 188 709 189 722 q 188 683 188 696 q 188 661 188 670 l 187 652 l 241 613 l 231 802 q 200 780 209 796 q 189 731 192 764 m 347 291 l 298 327 l 306 168 q 340 197 332 172 q 347 270 347 220 l 347 291 z "},"&":{"ha":1041,"x_min":1,"x_max":970,"o":"m 970 584 l 970 401 l 815 420 l 815 0 l 630 0 l 630 431 l 317 417 q 203 326 250 363 l 203 276 q 214 180 203 209 q 275 148 225 151 q 336 179 323 151 q 347 272 347 205 l 347 345 l 547 345 l 547 203 q 519 92 547 142 q 437 12 491 41 q 309 -18 384 -18 l 243 -18 q 114 12 168 -18 q 32 92 60 41 q 3 203 3 142 l 1 401 l 39 431 q 132 505 76 460 q 1 615 71 556 l 1 640 q 2 696 1 665 q 2 753 2 728 q 3 782 3 779 q 36 885 7 840 q 118 958 66 931 q 241 985 170 985 l 307 985 q 436 956 382 985 q 518 876 490 926 q 546 764 546 825 l 546 665 l 346 665 l 346 694 q 334 789 346 762 q 273 819 322 817 q 214 789 227 817 q 201 702 201 765 l 201 689 q 281 625 242 657 q 331 584 307 604 l 630 584 l 630 766 l 815 766 l 815 584 l 970 584 z "},"'":{"ha":310,"x_min":22,"x_max":272,"o":"m 147 669 q 128 752 147 715 q 84 817 109 790 q 41 859 60 844 l 22 873 l 147 999 l 272 873 l 253 859 q 210 817 234 844 q 166 752 185 790 q 147 669 147 715 z "},"(":{"ha":401,"x_min":12,"x_max":322,"o":"m 12 913 q 41 1025 12 975 q 122 1105 69 1075 q 252 1135 176 1135 l 322 1134 l 322 970 l 286 969 q 226 942 241 966 q 212 859 212 918 l 212 111 q 225 28 212 52 q 286 3 239 5 l 322 1 l 322 -162 l 252 -163 q 122 -133 176 -163 q 41 -53 69 -103 q 12 58 12 -3 l 12 913 z "},")":{"ha":427,"x_min":12,"x_max":322,"o":"m 322 58 q 294 -53 322 -3 q 212 -133 266 -103 q 83 -163 159 -163 l 12 -162 l 12 1 l 50 3 q 109 29 95 5 q 123 117 123 53 l 123 117 l 123 859 q 108 942 123 918 q 50 969 94 966 l 12 970 l 12 1134 l 83 1135 q 212 1105 159 1135 q 294 1025 266 1075 q 322 913 322 975 l 322 58 z "},"*":{"ha":405,"x_min":47,"x_max":355,"o":"m 262 880 l 355 890 l 355 817 l 248 830 l 336 770 l 310 744 l 283 718 l 216 812 l 237 699 l 164 699 l 183 813 l 118 718 l 92 744 l 66 770 l 160 838 l 47 817 l 47 890 l 144 873 l 66 936 l 92 962 l 118 988 l 174 915 l 164 1007 l 237 1007 l 226 916 l 283 988 l 310 962 l 336 936 l 262 880 z "},"+":{"ha":511,"x_min":46,"x_max":463,"o":"m 294 495 l 463 527 l 463 427 l 294 455 l 275 452 l 273 437 l 304 268 l 205 268 l 233 437 l 231 448 l 46 427 l 46 527 l 225 504 l 205 686 l 304 686 l 280 496 l 294 495 z "},",":{"ha":296,"x_min":7,"x_max":221,"o":"m 69 -79 l 94 22 l 7 108 l 132 233 l 194 170 l 198 165 q 208 150 202 159 q 217 130 213 141 q 221 108 221 119 q 217 85 221 96 q 208 65 213 74 q 198 51 202 56 l 194 45 l 69 -79 z "},"-":{"ha":504,"x_min":3,"x_max":421,"o":"m 3 289 l 3 463 l 252 448 l 421 463 l 421 289 l 231 324 l 3 289 z "},"­":{"ha":504,"x_min":3,"x_max":421,"o":"m 3 289 l 3 463 l 252 448 l 421 463 l 421 289 l 231 324 l 3 289 z "},".":{"ha":336,"x_min":3,"x_max":253,"o":"m 128 233 l 253 108 l 128 -18 l 3 108 l 128 233 z "},"/":{"ha":526,"x_min":1,"x_max":453,"o":"m 95 -34 l 1 -1 l 359 1002 l 453 969 l 95 -34 z "},":":{"ha":322,"x_min":5,"x_max":255,"o":"m 130 503 l 5 627 l 130 753 l 255 627 l 130 503 m 130 -15 l 5 110 l 130 235 l 255 110 l 130 -15 z "},";":{"ha":322,"x_min":5,"x_max":255,"o":"m 130 503 l 5 627 l 130 753 l 255 627 l 130 503 m 68 -79 l 93 22 l 5 108 l 130 233 l 193 170 l 197 165 q 206 150 201 159 q 216 130 212 141 q 220 108 220 119 q 216 85 220 96 q 206 65 212 74 q 197 51 201 56 l 193 45 l 68 -79 z "},";":{"ha":322,"x_min":5,"x_max":255,"o":"m 130 503 l 5 627 l 130 753 l 255 627 l 130 503 m 68 -79 l 93 22 l 5 108 l 130 233 l 193 170 l 197 165 q 206 150 201 159 q 216 130 212 141 q 220 108 220 119 q 216 85 220 96 q 206 65 212 74 q 197 51 201 56 l 193 45 l 68 -79 z "},"=":{"ha":500,"x_min":6,"x_max":423,"o":"m 6 507 l 6 606 l 254 574 l 423 606 l 423 507 l 254 534 l 6 507 m 6 348 l 6 447 l 254 416 l 423 447 l 423 348 l 254 376 l 6 348 z "},"?":{"ha":618,"x_min":-3,"x_max":541,"o":"m 302 988 q 431 958 378 988 q 513 878 485 928 q 541 767 541 828 l 541 617 q 365 462 454 536 l 357 296 l 181 296 l 170 544 l 218 582 q 357 695 267 619 l 357 701 q 357 716 357 707 q 356 736 357 726 q 348 794 355 775 q 325 819 342 813 q 275 824 309 824 l 274 824 q 228 818 245 824 q 203 785 211 812 q 196 693 196 758 l -3 693 l -3 767 q 25 878 -3 828 q 106 958 53 928 q 235 987 160 987 l 302 988 m 144 108 l 269 233 l 394 108 l 269 -18 l 144 108 z "},"@":{"ha":1080,"x_min":-15,"x_max":1016,"o":"m 500 1004 q 760 935 643 1004 q 946 748 877 865 q 1016 489 1016 631 q 998 349 1016 409 q 954 245 980 288 q 899 176 927 203 q 784 95 848 123 q 652 67 720 67 q 475 133 549 67 q 398 325 399 205 l 398 422 l 305 429 l 304 429 l 304 325 l 195 325 l 195 418 l 153 511 l 195 511 l 195 565 q 229 651 195 615 q 327 687 264 687 l 794 687 l 794 593 l 706 603 l 706 325 l 595 325 l 595 604 l 509 595 l 509 326 q 530 238 509 272 q 585 187 551 203 q 652 171 618 171 q 741 194 698 171 q 820 253 785 217 q 859 304 840 273 q 891 382 878 336 q 905 489 905 427 q 850 694 905 600 q 704 844 795 787 q 500 901 612 901 q 298 844 389 901 q 152 694 206 787 q 97 489 97 600 q 152 283 97 377 q 298 133 206 190 q 500 77 389 77 l 500 -26 q 242 43 359 -26 q 55 230 125 113 q -15 489 -15 347 q 55 748 -15 631 q 242 935 125 865 q 500 1004 359 1004 m 304 511 l 398 511 l 398 596 l 397 596 q 369 597 382 597 q 321 590 334 597 q 304 538 304 581 l 304 511 z "},"A":{"ha":667,"x_min":-71,"x_max":570,"o":"m 242 972 l 570 972 l 570 0 l 370 0 l 370 296 l 203 307 l 202 307 l 202 0 l 3 0 l 3 289 l -71 457 l 3 457 l 3 751 q 31 862 3 812 q 113 942 60 912 q 242 972 166 972 m 202 457 l 370 457 l 370 808 l 370 808 q 318 809 341 809 q 231 797 254 809 q 202 707 202 781 l 202 457 z "},"B":{"ha":669,"x_min":2,"x_max":569,"o":"m 330 972 q 458 942 405 972 q 541 862 512 912 q 569 751 569 812 l 569 601 q 487 530 532 566 q 569 458 532 492 l 569 221 q 541 110 569 160 q 458 30 512 60 q 330 0 405 0 l 2 0 l 2 972 l 330 972 m 201 808 l 201 539 q 385 679 284 595 l 385 688 l 384 720 q 351 797 382 783 q 256 808 326 808 q 227 808 243 808 l 201 808 m 385 380 q 340 416 363 399 q 201 318 260 359 l 201 164 l 250 164 q 321 167 292 164 q 365 184 350 170 q 382 233 379 199 q 385 328 385 267 l 385 380 z "},"C":{"ha":519,"x_min":-4,"x_max":452,"o":"m 195 822 l 195 822 l 195 270 q 222 178 195 195 q 317 163 246 163 q 352 164 333 163 l 452 164 l 452 0 l 235 0 q 106 30 159 0 q 24 110 52 60 q -4 221 -4 160 l -4 972 l 452 972 l 452 804 l 195 822 z "},"D":{"ha":642,"x_min":2,"x_max":557,"o":"m 557 751 l 557 221 q 529 110 557 160 q 447 30 500 60 q 318 0 393 0 l 2 0 l 2 972 l 318 972 q 447 942 393 972 q 529 862 500 912 q 557 751 557 812 m 201 164 q 236 163 220 163 q 330 178 307 163 q 358 267 358 194 l 358 705 q 330 794 358 778 q 236 808 307 808 q 201 808 220 808 l 201 164 z "},"E":{"ha":591,"x_min":-71,"x_max":506,"o":"m 506 804 l 201 822 l 201 457 l 506 457 l 506 289 l 201 307 l 201 151 l 506 169 l 506 1 l 201 1 l 3 0 l 3 289 l -71 457 l 3 457 l 3 972 l 506 972 l 506 804 z "},"F":{"ha":519,"x_min":-73,"x_max":465,"o":"m 465 804 l 200 822 l 200 457 l 465 457 l 465 289 l 200 307 l 200 0 l 1 0 l 1 289 l -73 457 l 1 457 l 1 972 l 465 972 l 465 804 z "},"G":{"ha":625,"x_min":-10,"x_max":526,"o":"m 281 319 l 222 454 l 526 454 l 526 0 l 229 0 q 100 30 153 0 q 18 110 47 60 q -10 221 -10 160 l -10 751 q 18 862 -10 812 q 100 942 47 912 q 229 972 153 972 l 526 972 l 502 593 l 343 605 l 343 804 l 330 804 q 252 800 282 804 q 209 784 222 795 q 192 749 195 772 q 189 690 189 727 l 189 304 q 220 190 190 217 q 323 164 250 164 l 327 164 l 327 321 l 281 319 z "},"H":{"ha":669,"x_min":-72,"x_max":568,"o":"m 370 972 l 568 972 l 568 0 l 370 0 l 370 296 l 201 307 l 201 307 l 201 0 l 1 0 l 1 289 l -72 457 l 1 457 l 1 972 l 201 972 l 201 457 l 370 457 l 370 972 z "},"I":{"ha":452,"x_min":-60,"x_max":370,"o":"m 370 836 l 269 840 l 269 142 l 370 140 l 370 0 l -1 0 l -60 126 l 70 136 l 70 840 l -1 837 l -60 971 l 370 972 l 370 836 z "},"J":{"ha":495,"x_min":-33,"x_max":396,"o":"m 396 972 l 396 221 q 368 110 396 160 q 286 30 339 60 q 157 0 232 0 l -33 1 l -33 343 l 126 343 l 114 165 q 182 190 165 166 q 197 274 197 212 l 197 842 l 50 837 l -9 971 l 197 971 l 197 972 l 396 972 z "},"K":{"ha":640,"x_min":3,"x_max":600,"o":"m 387 0 l 287 258 q 202 201 239 226 l 202 0 l 3 0 l 3 972 l 202 972 l 202 422 q 346 536 263 467 l 346 972 l 542 972 l 542 458 q 458 385 504 422 l 600 0 l 387 0 z "},"L":{"ha":504,"x_min":3,"x_max":469,"o":"m 446 378 l 469 0 l 3 0 l 3 972 l 201 972 l 201 150 l 203 150 l 289 156 l 287 366 l 446 378 z "},"M":{"ha":959,"x_min":3,"x_max":858,"o":"m 615 972 l 858 972 l 858 0 l 659 0 l 659 768 l 530 626 l 530 0 l 330 0 l 330 626 l 201 768 l 201 0 l 3 0 l 3 972 l 245 972 l 430 789 l 615 972 z "},"N":{"ha":637,"x_min":1,"x_max":539,"o":"m 340 972 l 539 972 l 539 0 l 340 0 l 340 490 l 197 681 l 197 0 l 1 0 l 1 973 l 193 972 l 197 967 l 340 778 l 340 972 z "},"O":{"ha":628,"x_min":-11,"x_max":534,"o":"m 527 826 q 532 799 530 817 q 534 771 534 782 l 534 205 q 506 94 534 144 q 424 14 477 44 q 295 -16 371 -16 l 228 -16 q 99 14 153 -16 q 17 94 45 44 q -11 205 -11 144 l -11 767 q 17 878 -11 828 q 99 958 45 928 q 228 987 153 987 l 295 987 q 449 942 389 987 q 527 826 509 897 m 335 660 q 332 759 335 724 q 313 808 328 794 q 262 822 298 822 q 210 808 226 822 q 191 759 195 794 q 188 660 188 724 l 188 312 q 191 213 188 248 q 210 164 195 178 q 262 150 225 150 q 314 164 298 150 q 332 213 329 178 q 335 312 335 248 l 335 660 z "},"P":{"ha":612,"x_min":2,"x_max":530,"o":"m 291 972 q 420 942 367 972 q 502 862 473 912 q 530 751 530 812 l 530 463 q 370 329 460 397 q 201 206 279 260 l 201 0 l 2 0 l 2 972 l 291 972 m 347 540 l 347 644 q 344 737 347 704 q 328 786 341 770 q 285 805 315 801 q 218 808 260 808 l 201 808 l 201 425 q 347 540 275 470 z "},"Q":{"ha":646,"x_min":3,"x_max":549,"o":"m 309 987 q 438 958 385 987 q 520 878 492 928 q 549 767 549 828 l 549 220 q 487 166 520 194 l 549 0 l 364 -74 l 320 39 q 286 15 302 27 q 241 -15 262 -1 q 66 51 129 -12 q 3 205 3 114 l 3 767 q 32 878 3 828 q 113 958 60 928 q 242 987 167 987 l 309 987 m 349 296 l 349 671 q 350 699 350 686 q 340 793 350 764 q 276 822 331 822 q 224 808 239 822 q 205 759 209 794 q 202 660 202 724 l 202 312 q 203 234 202 264 q 212 186 205 204 q 349 296 270 229 z "},"R":{"ha":624,"x_min":2,"x_max":542,"o":"m 336 -2 l 269 254 q 201 206 233 228 l 201 0 l 2 0 l 2 972 l 291 972 q 420 942 367 972 q 502 862 473 912 q 530 751 530 812 l 530 463 q 440 384 490 425 l 542 -2 l 336 -2 m 201 808 l 201 425 q 346 540 275 470 l 346 644 q 343 737 346 704 q 328 786 341 770 q 285 805 315 801 q 218 808 260 808 l 201 808 z "},"S":{"ha":589,"x_min":-10,"x_max":517,"o":"m 486 593 l 327 605 l 327 808 l 323 808 q 293 808 307 808 q 203 798 229 808 q 176 731 178 787 q 175 709 175 722 q 174 683 174 696 q 174 661 174 670 l 174 652 l 517 406 l 517 222 q 489 111 517 161 q 407 31 460 60 q 279 1 354 1 l -10 1 l -10 347 l 149 336 l 168 165 q 214 164 193 165 q 240 163 228 163 q 295 168 273 163 q 326 197 317 172 q 334 279 334 222 l 334 291 l -10 542 l -10 751 q 18 862 -10 812 q 100 942 46 912 q 229 972 153 972 l 509 972 l 486 593 z "},"T":{"ha":526,"x_min":-53,"x_max":474,"o":"m 474 972 l 474 804 l 315 820 l 315 0 l 116 0 l 116 823 l -53 804 l -53 972 l 474 972 z "},"U":{"ha":663,"x_min":1,"x_max":568,"o":"m 369 972 l 568 972 l 568 0 l 240 0 q 111 30 165 0 q 30 110 58 60 q 1 221 1 160 l 1 972 l 200 972 l 200 270 q 229 178 200 195 q 329 163 254 163 q 359 163 343 163 l 369 163 l 369 972 z "},"V":{"ha":665,"x_min":-71,"x_max":570,"o":"m 370 972 l 570 972 l 570 169 l 286 -38 l 3 169 l 3 804 l -71 972 l 202 972 l 202 268 l 286 208 l 370 268 l 370 972 z "},"W":{"ha":954,"x_min":0,"x_max":856,"o":"m 656 972 l 856 972 l 856 191 l 652 -16 l 528 106 l 528 22 l 328 -18 l 328 106 l 204 -16 l 0 191 l 0 972 l 199 972 l 199 226 l 328 368 l 328 833 l 268 972 l 528 972 l 528 368 l 656 226 l 656 972 z "},"X":{"ha":669,"x_min":2,"x_max":569,"o":"m 370 972 l 569 972 l 569 441 l 456 359 l 455 358 l 456 357 l 569 275 l 569 0 l 370 0 l 370 176 l 286 236 l 201 176 l 201 0 l 2 0 l 2 275 l 115 357 l 116 358 l 115 359 l 2 441 l 2 972 l 201 972 l 201 541 l 286 480 l 370 541 l 370 972 z "},"Y":{"ha":635,"x_min":-14,"x_max":553,"o":"m 553 972 l 553 441 l 370 307 l 370 0 l 170 0 l 170 307 l -14 441 l -14 972 l 186 972 l 186 541 l 270 480 l 354 541 l 354 972 l 553 972 z "},"Z":{"ha":606,"x_min":2,"x_max":552,"o":"m 339 422 l 213 149 l 507 166 l 507 -2 l 3 -2 l 2 166 l 116 414 l 3 408 l 3 576 l 190 576 l 302 821 l 3 804 l 3 972 l 507 972 l 507 789 l 409 576 l 552 576 l 479 408 l 339 422 z "},"[":{"ha":474,"x_min":3,"x_max":407,"o":"m 407 1106 l 349 972 l 202 977 l 202 -2 l 349 3 l 407 -132 l 3 -132 l 3 1107 l 407 1106 z "},"\\":{"ha":526,"x_min":1,"x_max":453,"o":"m 359 -34 l 1 969 l 95 1002 l 453 -1 l 359 -34 z "},"]":{"ha":474,"x_min":3,"x_max":407,"o":"m 3 1106 l 407 1107 l 407 -132 l 3 -132 l 62 3 l 208 -2 l 208 977 l 62 972 l 3 1106 z "},"_":{"ha":652,"x_min":1,"x_max":657,"o":"m 1 -67 l 1 33 l 330 1 l 657 33 l 657 -67 l 330 -39 l 1 -67 z "},"`":{"ha":635,"x_min":75,"x_max":553,"o":"m 553 984 q 399 1008 454 1005 q 314 1012 345 1012 q 267 1010 288 1012 q 201 999 222 1005 l 179 992 l 75 1088 l 216 1140 l 233 1124 q 286 1083 248 1107 q 389 1033 323 1059 q 553 984 454 1006 z "},"a":{"ha":667,"x_min":-71,"x_max":570,"o":"m 242 972 l 570 972 l 570 0 l 370 0 l 370 296 l 203 307 l 202 307 l 202 0 l 3 0 l 3 289 l -71 457 l 3 457 l 3 751 q 31 862 3 812 q 113 942 60 912 q 242 972 166 972 m 202 457 l 370 457 l 370 808 l 370 808 q 318 809 341 809 q 231 797 254 809 q 202 707 202 781 l 202 457 z "},"b":{"ha":669,"x_min":2,"x_max":569,"o":"m 330 972 q 458 942 405 972 q 541 862 512 912 q 569 751 569 812 l 569 601 q 487 530 532 566 q 569 458 532 492 l 569 221 q 541 110 569 160 q 458 30 512 60 q 330 0 405 0 l 2 0 l 2 972 l 330 972 m 201 808 l 201 539 q 385 679 284 595 l 385 688 l 384 720 q 351 797 382 783 q 256 808 326 808 q 227 808 243 808 l 201 808 m 385 380 q 340 416 363 399 q 201 318 260 359 l 201 164 l 250 164 q 321 167 292 164 q 365 184 350 170 q 382 233 379 199 q 385 328 385 267 l 385 380 z "},"c":{"ha":519,"x_min":-4,"x_max":452,"o":"m 195 822 l 195 822 l 195 270 q 222 178 195 195 q 317 163 246 163 q 352 164 333 163 l 452 164 l 452 0 l 235 0 q 106 30 159 0 q 24 110 52 60 q -4 221 -4 160 l -4 972 l 452 972 l 452 804 l 195 822 z "},"d":{"ha":642,"x_min":2,"x_max":557,"o":"m 557 751 l 557 221 q 529 110 557 160 q 447 30 500 60 q 318 0 393 0 l 2 0 l 2 972 l 318 972 q 447 942 393 972 q 529 862 500 912 q 557 751 557 812 m 201 164 q 236 163 220 163 q 330 178 307 163 q 358 267 358 194 l 358 705 q 330 794 358 778 q 236 808 307 808 q 201 808 220 808 l 201 164 z "},"e":{"ha":591,"x_min":-71,"x_max":506,"o":"m 506 804 l 201 822 l 201 457 l 506 457 l 506 289 l 201 307 l 201 151 l 506 169 l 506 1 l 201 1 l 3 0 l 3 289 l -71 457 l 3 457 l 3 972 l 506 972 l 506 804 z "},"f":{"ha":519,"x_min":-73,"x_max":465,"o":"m 465 804 l 200 822 l 200 457 l 465 457 l 465 289 l 200 307 l 200 0 l 1 0 l 1 289 l -73 457 l 1 457 l 1 972 l 465 972 l 465 804 z "},"g":{"ha":625,"x_min":-10,"x_max":526,"o":"m 281 319 l 222 454 l 526 454 l 526 0 l 229 0 q 100 30 153 0 q 18 110 47 60 q -10 221 -10 160 l -10 751 q 18 862 -10 812 q 100 942 47 912 q 229 972 153 972 l 526 972 l 502 593 l 343 605 l 343 804 l 330 804 q 252 800 282 804 q 209 784 222 795 q 192 749 195 772 q 189 690 189 727 l 189 304 q 220 190 190 217 q 323 164 250 164 l 327 164 l 327 321 l 281 319 z "},"h":{"ha":669,"x_min":-72,"x_max":568,"o":"m 370 972 l 568 972 l 568 0 l 370 0 l 370 296 l 201 307 l 201 307 l 201 0 l 1 0 l 1 289 l -72 457 l 1 457 l 1 972 l 201 972 l 201 457 l 370 457 l 370 972 z "},"i":{"ha":452,"x_min":-60,"x_max":370,"o":"m 370 836 l 269 840 l 269 142 l 370 140 l 370 0 l -1 0 l -60 126 l 70 136 l 70 840 l -1 837 l -60 971 l 370 972 l 370 836 z "},"j":{"ha":495,"x_min":-33,"x_max":396,"o":"m 396 972 l 396 221 q 368 110 396 160 q 286 30 339 60 q 157 0 232 0 l -33 1 l -33 343 l 126 343 l 114 165 q 182 190 165 166 q 197 274 197 212 l 197 842 l 50 837 l -9 971 l 197 971 l 197 972 l 396 972 z "},"k":{"ha":640,"x_min":3,"x_max":600,"o":"m 387 0 l 287 258 q 202 201 239 226 l 202 0 l 3 0 l 3 972 l 202 972 l 202 422 q 346 536 263 467 l 346 972 l 542 972 l 542 458 q 458 385 504 422 l 600 0 l 387 0 z "},"l":{"ha":504,"x_min":3,"x_max":469,"o":"m 446 378 l 469 0 l 3 0 l 3 972 l 201 972 l 201 150 l 203 150 l 289 156 l 287 366 l 446 378 z "},"m":{"ha":959,"x_min":3,"x_max":858,"o":"m 615 972 l 858 972 l 858 0 l 659 0 l 659 768 l 530 626 l 530 0 l 330 0 l 330 626 l 201 768 l 201 0 l 3 0 l 3 972 l 245 972 l 430 789 l 615 972 z "},"n":{"ha":637,"x_min":1,"x_max":539,"o":"m 340 972 l 539 972 l 539 0 l 340 0 l 340 490 l 197 681 l 197 0 l 1 0 l 1 973 l 193 972 l 197 967 l 340 778 l 340 972 z "},"o":{"ha":628,"x_min":-11,"x_max":534,"o":"m 527 826 q 532 799 530 817 q 534 771 534 782 l 534 205 q 506 94 534 144 q 424 14 477 44 q 295 -16 371 -16 l 228 -16 q 99 14 153 -16 q 17 94 45 44 q -11 205 -11 144 l -11 767 q 17 878 -11 828 q 99 958 45 928 q 228 987 153 987 l 295 987 q 449 942 389 987 q 527 826 509 897 m 335 660 q 332 759 335 724 q 313 808 328 794 q 262 822 298 822 q 210 808 226 822 q 191 759 195 794 q 188 660 188 724 l 188 312 q 191 213 188 248 q 210 164 195 178 q 262 150 225 150 q 314 164 298 150 q 332 213 329 178 q 335 312 335 248 l 335 660 z "},"p":{"ha":612,"x_min":2,"x_max":530,"o":"m 291 972 q 420 942 367 972 q 502 862 473 912 q 530 751 530 812 l 530 463 q 370 329 460 397 q 201 206 279 260 l 201 0 l 2 0 l 2 972 l 291 972 m 347 540 l 347 644 q 344 737 347 704 q 328 786 341 770 q 285 805 315 801 q 218 808 260 808 l 201 808 l 201 425 q 347 540 275 470 z "},"q":{"ha":646,"x_min":3,"x_max":549,"o":"m 309 987 q 438 958 385 987 q 520 878 492 928 q 549 767 549 828 l 549 220 q 487 166 520 194 l 549 0 l 364 -74 l 320 39 q 286 15 302 27 q 241 -15 262 -1 q 66 51 129 -12 q 3 205 3 114 l 3 767 q 32 878 3 828 q 113 958 60 928 q 242 987 167 987 l 309 987 m 349 296 l 349 671 q 350 699 350 686 q 340 793 350 764 q 276 822 331 822 q 224 808 239 822 q 205 759 209 794 q 202 660 202 724 l 202 312 q 203 234 202 264 q 212 186 205 204 q 349 296 270 229 z "},"r":{"ha":624,"x_min":2,"x_max":542,"o":"m 336 -2 l 269 254 q 201 206 233 228 l 201 0 l 2 0 l 2 972 l 291 972 q 420 942 367 972 q 502 862 473 912 q 530 751 530 812 l 530 463 q 440 384 490 425 l 542 -2 l 336 -2 m 201 808 l 201 425 q 346 540 275 470 l 346 644 q 343 737 346 704 q 328 786 341 770 q 285 805 315 801 q 218 808 260 808 l 201 808 z "},"s":{"ha":589,"x_min":-10,"x_max":517,"o":"m 486 593 l 327 605 l 327 808 l 323 808 q 293 808 307 808 q 203 798 229 808 q 176 731 178 787 q 175 709 175 722 q 174 683 174 696 q 174 661 174 670 l 174 652 l 517 406 l 517 222 q 489 111 517 161 q 407 31 460 60 q 279 1 354 1 l -10 1 l -10 347 l 149 336 l 168 165 q 214 164 193 165 q 240 163 228 163 q 295 168 273 163 q 326 197 317 172 q 334 279 334 222 l 334 291 l -10 542 l -10 751 q 18 862 -10 812 q 100 942 46 912 q 229 972 153 972 l 509 972 l 486 593 z "},"t":{"ha":526,"x_min":-53,"x_max":474,"o":"m 474 972 l 474 804 l 315 820 l 315 0 l 116 0 l 116 823 l -53 804 l -53 972 l 474 972 z "},"u":{"ha":663,"x_min":1,"x_max":568,"o":"m 369 972 l 568 972 l 568 0 l 240 0 q 111 30 165 0 q 30 110 58 60 q 1 221 1 160 l 1 972 l 200 972 l 200 270 q 229 178 200 195 q 329 163 254 163 q 359 163 343 163 l 369 163 l 369 972 z "},"v":{"ha":665,"x_min":-71,"x_max":570,"o":"m 370 972 l 570 972 l 570 169 l 286 -38 l 3 169 l 3 804 l -71 972 l 202 972 l 202 268 l 286 208 l 370 268 l 370 972 z "},"w":{"ha":954,"x_min":0,"x_max":856,"o":"m 656 972 l 856 972 l 856 191 l 652 -16 l 528 106 l 528 22 l 328 -18 l 328 106 l 204 -16 l 0 191 l 0 972 l 199 972 l 199 226 l 328 368 l 328 833 l 268 972 l 528 972 l 528 368 l 656 226 l 656 972 z "},"x":{"ha":669,"x_min":2,"x_max":569,"o":"m 370 972 l 569 972 l 569 441 l 456 359 l 455 358 l 456 357 l 569 275 l 569 0 l 370 0 l 370 176 l 286 236 l 201 176 l 201 0 l 2 0 l 2 275 l 115 357 l 116 358 l 115 359 l 2 441 l 2 972 l 201 972 l 201 541 l 286 480 l 370 541 l 370 972 z "},"y":{"ha":667,"x_min":0,"x_max":567,"o":"m 567 972 l 567 441 l 383 307 l 383 0 l 184 0 l 184 307 l 0 441 l 0 972 l 199 972 l 199 541 l 283 480 l 368 541 l 368 972 l 567 972 z "},"z":{"ha":606,"x_min":2,"x_max":552,"o":"m 339 422 l 213 149 l 507 166 l 507 -2 l 3 -2 l 2 166 l 116 414 l 3 408 l 3 576 l 190 576 l 302 821 l 3 804 l 3 972 l 507 972 l 507 789 l 409 576 l 552 576 l 479 408 l 339 422 z "},"{":{"ha":455,"x_min":-18,"x_max":410,"o":"m 100 913 q 129 1025 100 975 q 211 1105 157 1075 q 340 1135 264 1135 l 410 1134 l 410 970 l 374 969 q 314 938 329 967 q 300 823 300 909 l 300 602 l 220 493 l 300 382 l 300 111 q 314 28 300 52 q 374 3 328 5 l 410 1 l 410 -162 l 340 -163 q 211 -133 264 -163 q 129 -53 157 -103 q 100 58 100 -3 l 100 371 l -18 493 l 100 604 l 100 913 z "},"|":{"ha":237,"x_min":58,"x_max":158,"o":"m 158 -48 l 58 -48 l 58 1017 l 158 1017 l 158 -48 z "},"}":{"ha":464,"x_min":2,"x_max":431,"o":"m 312 913 l 312 604 l 431 493 l 312 371 l 312 58 q 283 -53 312 -3 q 202 -133 255 -103 q 73 -163 149 -163 l 2 -162 l 2 1 l 39 3 q 99 29 85 5 q 113 111 113 52 l 113 382 l 192 493 l 113 602 l 113 823 q 98 938 113 909 q 39 969 83 967 l 2 970 l 2 1134 l 73 1135 q 202 1105 149 1135 q 283 1025 255 1075 q 312 913 312 975 z "},"~":{"ha":650,"x_min":73,"x_max":570,"o":"m 491 1165 l 570 997 l 425 1095 l 407 1082 q 362 1052 389 1069 q 307 1019 335 1034 q 260 997 279 1004 q 217 990 239 990 l 217 949 l 203 949 l 203 989 q 183 991 193 990 l 183 949 l 166 949 l 166 993 l 146 997 l 73 1165 l 183 1094 l 208 1103 q 268 1126 233 1113 q 336 1150 302 1139 q 389 1165 369 1161 q 437 1169 414 1169 q 475 1167 460 1169 l 491 1165 m 452 1113 q 462 1117 458 1113 q 467 1128 467 1122 q 462 1138 467 1134 q 452 1143 458 1143 q 441 1138 446 1143 q 437 1128 437 1134 q 441 1117 437 1122 q 452 1113 446 1113 m 483 1120 q 489 1122 486 1120 q 492 1128 492 1124 q 489 1134 492 1131 q 483 1136 486 1136 q 477 1134 479 1136 q 475 1128 475 1131 q 477 1122 475 1124 q 483 1120 479 1120 z "},"¡":{"ha":338,"x_min":3,"x_max":254,"o":"m 216 675 l 229 0 l 29 0 l 41 675 l 216 675 m 129 739 l 3 864 l 129 989 l 254 864 l 129 739 z "},"£":{"ha":737,"x_min":-40,"x_max":646,"o":"m 646 0 l 91 0 l 91 381 l -40 370 l -40 469 l 91 457 l 91 510 l -40 499 l -40 598 l 91 586 l 91 767 q 119 878 91 828 q 201 958 148 928 q 330 987 255 987 l 397 987 q 526 958 473 987 q 608 878 580 928 q 637 767 637 828 l 637 659 l 441 659 l 437 660 q 434 758 437 724 q 415 805 431 791 q 364 822 399 819 q 313 805 328 819 q 294 758 297 791 q 290 660 290 724 l 290 567 l 615 598 l 615 499 l 290 526 l 290 438 l 615 469 l 615 370 l 290 397 l 290 150 l 465 161 l 463 295 l 622 307 l 646 0 z "},"¥":{"ha":677,"x_min":-35,"x_max":621,"o":"m 385 447 l 621 469 l 621 370 l 385 390 l 385 310 l 621 332 l 621 233 l 385 253 l 385 -1 l 186 -1 l 186 252 l -35 233 l -35 332 l 186 311 l 186 389 l -35 370 l -35 469 l 186 448 l 186 465 l 2 600 l 2 972 l 201 972 l 201 699 l 286 638 l 370 699 l 370 972 l 569 972 l 569 600 l 385 465 l 385 447 z "},"¨":{"ha":561,"x_min":58,"x_max":477,"o":"m 159 991 l 58 1094 l 159 1196 l 261 1094 l 159 991 m 376 991 l 274 1094 l 376 1196 l 477 1094 l 376 991 z "},"©":{"ha":926,"x_min":-21,"x_max":927,"o":"m 277 418 q 305 437 297 418 l 334 423 q 309 397 324 407 q 274 388 293 388 q 225 406 243 388 q 207 458 207 425 q 225 509 207 490 q 273 528 244 528 q 332 495 315 528 l 302 479 q 291 494 298 490 q 277 498 283 498 q 248 458 248 498 q 255 429 248 439 q 277 418 262 418 m 701 541 q 669 573 669 541 q 701 605 669 605 q 732 573 732 605 q 701 541 732 541 m 748 530 q 758 526 753 530 q 762 515 762 521 l 762 422 l 736 422 l 736 313 l 667 313 l 667 422 l 641 422 l 641 515 q 644 526 641 521 q 655 530 648 530 l 748 530 m 147 418 q 175 437 167 418 l 203 423 q 178 397 194 407 q 143 388 162 388 q 95 406 113 388 q 76 458 76 425 q 95 509 76 490 q 142 528 113 528 q 202 495 184 528 l 172 479 q 160 494 167 490 q 147 498 153 498 q 117 458 117 498 q 125 429 117 439 q 147 418 132 418 m 337 329 q 390 458 390 380 q 376 529 390 495 q 336 589 363 562 q 205 643 281 643 q 75 589 128 643 q 34 528 48 562 q 20 458 20 495 q 34 388 20 421 q 75 328 48 355 q 135 288 102 301 q 205 273 169 273 q 276 288 241 273 q 337 329 309 302 m 833 329 q 886 459 886 380 q 832 589 886 536 q 702 644 779 644 q 572 589 625 644 q 516 459 516 533 q 571 329 516 384 q 702 274 625 274 q 833 329 777 274 m 366 617 q 414 545 397 586 q 431 458 431 504 q 414 371 431 412 q 366 299 398 330 q 292 250 333 267 q 205 232 249 232 q 119 250 159 232 q 45 298 77 267 q -4 372 13 332 q -21 458 -21 413 q -4 544 -21 503 q 46 618 14 585 q 205 684 110 684 q 366 617 299 684 m 861 619 q 927 459 927 553 q 863 300 927 363 q 701 233 794 233 q 542 299 610 233 q 475 459 475 366 q 542 619 475 551 q 701 684 608 684 q 861 619 796 684 z "},"«":{"ha":452,"x_min":14,"x_max":403,"o":"m 336 471 l 340 446 q 351 386 343 421 q 372 318 359 351 q 403 266 385 285 q 353 315 377 292 q 313 354 330 338 l 297 369 l 195 471 l 246 522 l 297 573 l 313 589 q 353 629 330 605 q 403 679 377 653 q 371 625 384 659 q 351 556 359 591 q 339 496 342 521 l 336 471 m 154 471 l 158 446 q 170 386 161 421 q 190 318 178 351 q 221 266 203 285 q 172 315 195 292 q 132 354 148 338 l 115 369 l 14 471 l 64 522 l 115 573 l 132 589 q 172 629 148 605 q 221 679 195 653 q 190 625 202 659 q 169 556 177 591 q 157 496 161 521 l 154 471 z "},"®":{"ha":926,"x_min":-21,"x_max":927,"o":"m 277 418 q 305 437 297 418 l 334 423 q 309 397 324 407 q 274 388 293 388 q 225 406 243 388 q 207 458 207 425 q 225 509 207 490 q 273 528 244 528 q 332 495 315 528 l 302 479 q 291 494 298 490 q 277 498 283 498 q 248 458 248 498 q 255 429 248 439 q 277 418 262 418 m 701 541 q 669 573 669 541 q 701 605 669 605 q 732 573 732 605 q 701 541 732 541 m 748 530 q 758 526 753 530 q 762 515 762 521 l 762 422 l 736 422 l 736 313 l 667 313 l 667 422 l 641 422 l 641 515 q 644 526 641 521 q 655 530 648 530 l 748 530 m 147 418 q 175 437 167 418 l 203 423 q 178 397 194 407 q 143 388 162 388 q 95 406 113 388 q 76 458 76 425 q 95 509 76 490 q 142 528 113 528 q 202 495 184 528 l 172 479 q 160 494 167 490 q 147 498 153 498 q 117 458 117 498 q 125 429 117 439 q 147 418 132 418 m 337 329 q 390 458 390 380 q 376 529 390 495 q 336 589 363 562 q 205 643 281 643 q 75 589 128 643 q 34 528 48 562 q 20 458 20 495 q 34 388 20 421 q 75 328 48 355 q 135 288 102 301 q 205 273 169 273 q 276 288 241 273 q 337 329 309 302 m 833 329 q 886 459 886 380 q 832 589 886 536 q 702 644 779 644 q 572 589 625 644 q 516 459 516 533 q 571 329 516 384 q 702 274 625 274 q 833 329 777 274 m 366 617 q 414 545 397 586 q 431 458 431 504 q 414 371 431 412 q 366 299 398 330 q 292 250 333 267 q 205 232 249 232 q 119 250 159 232 q 45 298 77 267 q -4 372 13 332 q -21 458 -21 413 q -4 544 -21 503 q 46 618 14 585 q 205 684 110 684 q 366 617 299 684 m 861 619 q 927 459 927 553 q 863 300 927 363 q 701 233 794 233 q 542 299 610 233 q 475 459 475 366 q 542 619 475 551 q 701 684 608 684 q 861 619 796 684 z "},"±":{"ha":511,"x_min":60,"x_max":477,"o":"m 477 121 l 229 149 l 60 121 l 60 221 l 229 189 l 477 221 l 477 121 m 308 495 l 477 527 l 477 427 l 308 455 l 288 452 l 286 437 l 318 268 l 218 268 l 246 437 l 245 448 l 60 427 l 60 527 l 239 504 l 218 686 l 318 686 l 294 496 l 308 495 z "},"²":{"ha":399,"x_min":-1,"x_max":304,"o":"m 170 1164 q 242 1147 212 1164 q 289 1102 273 1131 q 304 1040 304 1074 l 304 956 q 211 874 262 916 q 122 802 160 832 l 122 694 l 123 694 l 203 699 l 201 815 l 291 822 l 304 610 l 10 610 l 10 845 l 44 872 q 122 934 78 899 q 201 1000 166 970 l 201 1003 q 201 1011 201 1006 q 200 1023 201 1017 q 189 1063 199 1055 q 155 1072 179 1072 l 152 1072 q 128 1068 137 1072 q 115 1049 119 1064 q 111 999 111 1034 l -1 999 l -1 1040 q 15 1102 -1 1074 q 60 1147 31 1131 q 132 1164 90 1164 l 170 1164 z "},"³":{"ha":399,"x_min":2,"x_max":308,"o":"m 14 1160 l 308 1160 l 308 962 q 260 918 286 940 q 295 876 283 901 q 307 821 307 850 l 307 722 l 307 722 q 289 664 305 690 q 243 622 273 637 q 173 606 214 606 l 136 606 q 64 623 94 606 q 18 667 34 640 q 2 730 3 695 l 2 768 l 117 768 l 117 730 q 128 707 119 714 q 155 699 136 701 q 189 717 182 701 q 195 768 195 731 l 195 775 q 192 825 195 808 q 176 847 189 842 q 119 801 141 819 l 96 783 l 35 867 l 64 890 q 131 944 92 913 q 205 1005 170 976 l 204 1078 l 116 1071 l 117 977 l 28 970 l 14 1160 z "},"´":{"ha":694,"x_min":82,"x_max":559,"o":"m 82 984 q 246 1033 180 1006 q 349 1083 311 1059 q 403 1124 387 1107 l 418 1140 l 559 1088 l 456 992 l 435 999 q 380 1008 413 1005 q 321 1012 347 1012 q 252 1009 290 1012 q 82 984 181 1005 z "},"¸":{"ha":519,"x_min":98,"x_max":365,"o":"m 254 3 l 254 -32 l 293 -32 l 365 -155 l 293 -279 l 150 -279 l 98 -189 l 157 -155 l 189 -212 l 254 -212 l 286 -155 l 254 -100 l 189 -100 l 189 3 l 254 3 z "},"¹":{"ha":263,"x_min":3,"x_max":165,"o":"m 44 1162 l 156 1162 l 165 616 l 53 616 l 62 1087 l 3 1067 l 44 1162 z "},"»":{"ha":452,"x_min":14,"x_max":403,"o":"m 81 471 l 77 496 q 66 556 74 521 q 45 625 58 591 q 14 679 33 659 q 63 629 39 653 q 103 589 87 605 l 119 573 l 170 522 l 221 471 l 119 369 l 103 354 q 63 315 87 338 q 14 266 39 292 q 44 318 32 285 q 65 386 57 351 q 77 446 73 421 l 81 471 m 262 471 l 259 496 q 248 556 256 521 q 227 625 239 591 q 195 679 214 659 q 245 629 221 653 q 285 589 269 605 l 301 573 l 352 522 l 403 471 l 301 369 l 285 354 q 244 315 269 338 q 195 266 220 292 q 226 318 214 285 q 247 386 239 351 q 258 446 255 421 l 262 471 z "},"¼":{"ha":907,"x_min":-20,"x_max":804,"o":"m 50 73 l -20 143 l 733 896 l 804 825 l 50 73 m 71 970 l 183 970 l 192 425 l 80 425 l 89 895 l 30 876 l 71 970 m 616 300 l 728 300 l 728 -1 l 616 -1 l 623 107 l 458 107 l 458 305 l 471 319 q 505 360 484 334 q 550 425 526 387 q 584 489 573 463 q 598 529 595 515 l 601 543 l 724 543 l 715 519 q 692 462 707 495 q 659 398 677 429 q 620 347 640 370 q 585 312 600 325 l 570 298 l 570 191 l 629 196 l 616 300 z "},"½":{"ha":945,"x_min":-16,"x_max":838,"o":"m 54 73 l -16 143 l 737 896 l 808 825 l 54 73 m 96 970 l 208 970 l 217 425 l 105 425 l 114 895 l 55 876 l 96 970 m 703 554 q 775 537 745 554 q 822 492 806 520 q 838 430 838 464 l 838 346 q 744 264 795 306 q 655 192 693 222 l 655 83 l 656 83 l 736 89 l 734 205 l 824 212 l 837 -1 l 543 -1 l 543 235 l 577 262 q 655 324 611 288 q 734 389 699 359 l 734 393 q 734 401 734 396 q 733 412 734 406 q 722 453 732 444 q 688 462 712 462 l 685 462 q 661 457 670 461 q 648 439 652 454 q 644 389 644 424 l 532 389 l 532 430 q 548 492 532 464 q 593 537 564 520 q 665 553 623 553 l 703 554 z "},"¾":{"ha":237,"x_min":-309,"x_max":520,"o":"m -233 73 l -304 143 l 450 896 l 520 825 l -233 73 m -297 970 l -3 970 l -3 771 q -52 728 -26 749 q -16 685 -28 710 q -4 630 -4 660 l -4 532 l -5 532 q -22 473 -6 499 q -68 431 -39 447 q -138 416 -98 416 l -175 416 q -247 432 -217 416 q -293 477 -277 449 q -309 539 -309 505 l -309 578 l -195 578 l -195 539 q -183 517 -192 524 q -157 509 -175 510 q -123 526 -130 510 q -116 578 -116 541 l -116 585 q -119 634 -116 618 q -136 656 -123 651 q -193 610 -170 628 l -216 593 l -276 677 l -248 700 q -180 754 -219 722 q -106 814 -141 785 l -107 887 l -195 880 l -194 787 l -283 780 l -297 970 m 330 302 l 442 302 l 442 1 l 330 1 l 338 109 l 173 109 l 173 307 l 186 321 q 219 361 199 335 q 264 426 240 388 q 298 490 288 464 q 313 530 309 517 l 315 545 l 439 545 l 430 520 q 406 463 421 496 q 373 399 391 430 q 334 349 355 371 q 299 313 314 326 l 285 300 l 285 193 l 344 197 l 330 302 z "},"¿":{"ha":618,"x_min":3,"x_max":548,"o":"m 242 -18 q 113 12 167 -18 q 32 92 60 42 q 3 203 3 142 l 3 353 q 180 509 90 434 l 188 674 l 363 674 l 375 426 l 326 389 q 187 275 277 351 l 187 269 q 188 254 187 263 q 189 235 188 245 q 196 176 190 195 q 219 152 203 157 q 270 146 236 146 l 271 146 q 317 152 300 146 q 341 185 334 158 q 349 277 349 212 l 548 277 l 548 203 q 520 93 548 142 q 438 13 492 43 q 309 -17 385 -17 l 242 -18 m 401 863 l 275 738 l 151 863 l 275 988 l 401 863 z "},"À":{"ha":667,"x_min":-71,"x_max":570,"o":"m 242 972 l 570 972 l 570 0 l 370 0 l 370 296 l 203 307 l 202 307 l 202 0 l 3 0 l 3 289 l -71 457 l 3 457 l 3 751 q 31 862 3 812 q 113 942 60 912 q 242 972 166 972 m 202 457 l 370 457 l 370 808 l 370 808 q 318 809 341 809 q 231 797 254 809 q 202 707 202 781 l 202 457 m 512 984 q 359 1008 414 1005 q 273 1012 304 1012 q 227 1010 247 1012 q 160 999 181 1005 l 138 992 l 35 1088 l 176 1140 l 192 1124 q 245 1083 208 1107 q 348 1033 283 1059 q 512 984 414 1006 z "},"Á":{"ha":667,"x_min":-71,"x_max":570,"o":"m 242 972 l 570 972 l 570 0 l 370 0 l 370 296 l 203 307 l 202 307 l 202 0 l 3 0 l 3 289 l -71 457 l 3 457 l 3 751 q 31 862 3 812 q 113 942 60 912 q 242 972 166 972 m 202 457 l 370 457 l 370 808 l 370 808 q 318 809 341 809 q 231 797 254 809 q 202 707 202 781 l 202 457 m 82 984 q 246 1033 180 1006 q 349 1083 311 1059 q 403 1124 387 1107 l 418 1140 l 559 1088 l 456 992 l 435 999 q 380 1008 413 1005 q 321 1012 347 1012 q 252 1009 290 1012 q 82 984 181 1005 z "},"Â":{"ha":667,"x_min":-71,"x_max":570,"o":"m 242 972 l 570 972 l 570 0 l 370 0 l 370 296 l 203 307 l 202 307 l 202 0 l 3 0 l 3 289 l -71 457 l 3 457 l 3 751 q 31 862 3 812 q 113 942 60 912 q 242 972 166 972 m 202 457 l 370 457 l 370 808 l 370 808 q 318 809 341 809 q 231 797 254 809 q 202 707 202 781 l 202 457 m 311 1050 l 286 1046 q 225 1035 260 1043 q 156 1015 190 1027 q 102 983 122 1002 q 152 1032 128 1008 q 193 1072 176 1056 l 208 1088 l 260 1139 l 311 1190 l 412 1088 l 427 1072 q 467 1032 443 1056 q 516 983 490 1008 q 464 1014 497 1001 q 395 1034 430 1026 q 335 1046 360 1042 l 311 1050 z "},"Ã":{"ha":667,"x_min":-71,"x_max":570,"o":"m 202 457 l 370 457 l 370 808 l 370 808 q 318 809 341 809 q 231 797 254 809 q 202 707 202 781 l 202 457 m 431 1113 q 442 1117 437 1113 q 446 1128 446 1122 q 442 1138 446 1134 q 431 1143 437 1143 q 421 1138 425 1143 q 416 1128 416 1134 q 421 1117 416 1122 q 431 1113 425 1113 m 463 1120 q 469 1122 466 1120 q 471 1128 471 1124 q 469 1134 471 1131 q 463 1136 466 1136 q 457 1134 459 1136 q 454 1128 454 1131 q 457 1122 454 1124 q 463 1120 459 1120 m 197 969 q 242 972 218 972 l 570 972 l 570 0 l 370 0 l 370 296 l 203 307 l 202 307 l 202 0 l 3 0 l 3 289 l -71 457 l 3 457 l 3 751 q 31 862 3 812 q 113 942 60 912 q 146 957 128 951 l 146 993 l 125 997 l 52 1165 l 163 1094 l 163 1094 l 164 1095 q 188 1103 168 1096 q 247 1126 212 1113 q 315 1150 282 1139 q 368 1165 349 1161 q 417 1169 394 1169 q 455 1167 439 1169 q 469 1165 466 1166 l 471 1165 l 550 997 l 405 1095 q 404 1094 404 1095 q 387 1082 401 1092 q 341 1052 368 1069 q 287 1019 315 1034 q 239 997 259 1004 q 197 990 218 990 l 197 969 m 163 962 q 183 966 173 965 l 183 989 q 163 991 172 990 l 163 962 z "},"Ä":{"ha":667,"x_min":-71,"x_max":570,"o":"m 242 972 l 570 972 l 570 0 l 370 0 l 370 296 l 203 307 l 202 307 l 202 0 l 3 0 l 3 289 l -71 457 l 3 457 l 3 751 q 31 862 3 812 q 113 942 60 912 q 242 972 166 972 m 202 457 l 370 457 l 370 808 l 370 808 q 318 809 341 809 q 231 797 254 809 q 202 707 202 781 l 202 457 m 197 991 l 95 1094 l 197 1196 l 298 1094 l 197 991 m 413 991 l 311 1094 l 413 1196 l 515 1094 l 413 991 z "},"Å":{"ha":667,"x_min":-71,"x_max":570,"o":"m 242 972 l 570 972 l 570 0 l 370 0 l 370 296 l 203 307 l 202 307 l 202 0 l 3 0 l 3 289 l -71 457 l 3 457 l 3 751 q 31 862 3 812 q 113 942 60 912 q 242 972 166 972 m 202 457 l 370 457 l 370 808 l 370 808 q 318 809 341 809 q 231 797 254 809 q 202 707 202 781 l 202 457 m 365 1216 l 428 1106 l 365 997 l 238 997 l 175 1106 l 238 1216 l 365 1216 m 338 1042 l 376 1106 l 338 1171 l 264 1171 l 228 1106 l 264 1042 l 338 1042 z "},"Æ":{"ha":967,"x_min":-71,"x_max":873,"o":"m 570 822 l 570 822 l 570 457 l 873 457 l 873 289 l 570 307 l 570 307 l 570 151 l 570 151 l 873 169 l 873 1 l 370 0 l 370 289 l 367 296 l 203 307 l 202 307 l 202 0 l 3 0 l 3 289 l -71 457 l 3 457 l 3 751 q 31 862 3 812 q 113 942 60 912 q 241 972 166 972 l 873 972 l 873 804 l 570 822 m 202 457 l 370 457 l 370 808 l 370 808 q 318 809 341 809 q 231 797 254 809 q 202 707 202 781 l 202 457 z "},"Ç":{"ha":519,"x_min":-6,"x_max":450,"o":"m 193 822 l 193 822 l 193 270 q 220 178 193 195 q 315 163 244 163 q 350 164 331 163 l 450 164 l 450 0 l 254 0 l 254 -32 l 293 -32 l 365 -155 l 293 -279 l 150 -279 l 98 -189 l 157 -155 l 189 -212 l 254 -212 l 286 -155 l 254 -100 l 189 -100 l 189 3 q 45 78 96 18 q -6 221 -6 138 l -6 972 l 450 972 l 450 804 l 193 822 z "},"È":{"ha":591,"x_min":-71,"x_max":506,"o":"m 506 804 l 201 822 l 201 457 l 506 457 l 506 289 l 201 307 l 201 151 l 506 169 l 506 1 l 201 1 l 3 0 l 3 289 l -71 457 l 3 457 l 3 972 l 506 972 l 506 804 m 492 984 q 338 1008 393 1005 q 253 1012 283 1012 q 206 1010 227 1012 q 140 999 161 1005 l 118 992 l 14 1088 l 155 1140 l 172 1124 q 225 1083 187 1107 q 328 1033 262 1059 q 492 984 393 1006 z "},"É":{"ha":591,"x_min":-71,"x_max":506,"o":"m 506 804 l 201 822 l 201 457 l 506 457 l 506 289 l 201 307 l 201 151 l 506 169 l 506 1 l 201 1 l 3 0 l 3 289 l -71 457 l 3 457 l 3 972 l 506 972 l 506 804 m 21 984 q 185 1033 119 1006 q 288 1083 250 1059 q 342 1124 326 1107 l 357 1140 l 498 1088 l 395 992 l 374 999 q 319 1008 352 1005 q 260 1012 286 1012 q 191 1009 229 1012 q 21 984 120 1005 z "},"Ê":{"ha":591,"x_min":-71,"x_max":506,"o":"m 506 804 l 201 822 l 201 457 l 506 457 l 506 289 l 201 307 l 201 151 l 506 169 l 506 1 l 201 1 l 3 0 l 3 289 l -71 457 l 3 457 l 3 972 l 506 972 l 506 804 m 250 1050 l 224 1046 q 164 1035 199 1043 q 95 1015 129 1027 q 41 983 61 1002 q 91 1032 67 1008 q 132 1072 115 1056 l 147 1088 l 199 1139 l 250 1190 l 351 1088 l 366 1072 q 406 1032 382 1056 q 455 983 429 1008 q 402 1014 436 1001 q 334 1034 369 1026 q 274 1046 299 1042 l 250 1050 z "},"Ë":{"ha":591,"x_min":-71,"x_max":506,"o":"m 506 804 l 201 822 l 201 457 l 506 457 l 506 289 l 201 307 l 201 151 l 506 169 l 506 1 l 201 1 l 3 0 l 3 289 l -71 457 l 3 457 l 3 972 l 506 972 l 506 804 m 149 991 l 47 1094 l 149 1196 l 251 1094 l 149 991 m 366 991 l 264 1094 l 366 1196 l 467 1094 l 366 991 z "},"Ì":{"ha":452,"x_min":-67,"x_max":410,"o":"m 370 836 l 269 840 l 269 142 l 370 140 l 370 0 l -1 0 l -60 126 l 70 136 l 70 840 l -1 837 l -60 971 l 370 972 l 370 836 m 410 984 q 257 1008 312 1005 q 172 1012 202 1012 q 125 1010 145 1012 q 58 999 79 1005 l 37 992 l -67 1088 l 74 1140 l 90 1124 q 143 1083 106 1107 q 247 1033 181 1059 q 410 984 312 1006 z "},"Í":{"ha":452,"x_min":-60,"x_max":424,"o":"m 370 836 l 269 840 l 269 142 l 370 140 l 370 0 l -1 0 l -60 126 l 70 136 l 70 840 l -1 837 l -60 971 l 370 972 l 370 836 m -54 984 q 110 1033 45 1006 q 213 1083 176 1059 q 267 1124 251 1107 l 283 1140 l 424 1088 l 320 992 l 299 999 q 244 1008 277 1005 q 185 1012 212 1012 q 116 1009 155 1012 q -54 984 45 1005 z "},"Î":{"ha":452,"x_min":-60,"x_max":370,"o":"m 370 836 l 269 840 l 269 142 l 370 140 l 370 0 l -1 0 l -60 126 l 70 136 l 70 840 l -1 837 l -60 971 l 370 972 l 370 836 m 161 1050 l 136 1046 q 76 1035 111 1043 q 7 1015 41 1027 q -47 983 -27 1002 q 3 1032 -21 1008 q 43 1072 27 1056 l 59 1088 l 111 1139 l 161 1190 l 263 1088 l 278 1072 q 317 1032 294 1056 q 367 983 341 1008 q 314 1014 348 1001 q 246 1034 281 1026 q 186 1046 211 1042 l 161 1050 z "},"Ï":{"ha":452,"x_min":-60,"x_max":379,"o":"m 370 836 l 269 840 l 269 142 l 370 140 l 370 0 l -1 0 l -60 126 l 70 136 l 70 840 l -1 837 l -60 971 l 370 972 l 370 836 m 61 991 l -41 1094 l 61 1196 l 163 1094 l 61 991 m 277 991 l 176 1094 l 277 1196 l 379 1094 l 277 991 z "},"Ñ":{"ha":637,"x_min":1,"x_max":539,"o":"m 397 1113 q 408 1117 404 1113 q 412 1128 412 1122 q 408 1138 412 1134 q 397 1143 404 1143 q 387 1138 391 1143 q 382 1128 382 1134 q 387 1117 382 1122 q 397 1113 391 1113 m 429 1120 q 435 1122 432 1120 q 437 1128 437 1124 q 435 1134 437 1131 q 429 1136 432 1136 q 423 1134 425 1136 q 420 1128 420 1131 q 423 1122 420 1124 q 429 1120 425 1120 m 163 972 l 193 972 l 197 967 l 340 778 l 340 972 l 539 972 l 539 0 l 340 0 l 340 490 l 197 681 l 197 0 l 1 0 l 1 973 l 112 972 l 112 993 l 92 997 l 18 1165 l 129 1094 l 130 1094 l 130 1095 q 154 1103 134 1096 q 213 1126 178 1113 q 281 1150 248 1139 q 334 1165 315 1161 q 383 1169 360 1169 q 421 1167 406 1169 q 435 1165 432 1166 l 437 1165 l 516 997 l 371 1095 q 370 1094 370 1095 q 353 1082 367 1092 q 308 1052 334 1069 q 253 1019 281 1034 q 205 997 225 1004 q 163 990 184 990 l 163 972 m 129 972 l 149 972 l 149 989 q 129 991 138 990 l 129 972 z "},"Ò":{"ha":628,"x_min":-11,"x_max":534,"o":"m 527 826 q 532 799 530 817 q 534 771 534 782 l 534 205 q 506 94 534 144 q 424 14 477 44 q 295 -16 371 -16 l 228 -16 q 99 14 153 -16 q 17 94 45 44 q -11 205 -11 144 l -11 767 q 17 878 -11 828 q 99 958 45 928 q 228 987 153 987 l 295 987 q 449 942 389 987 q 527 826 509 897 m 335 660 q 332 759 335 724 q 313 808 328 794 q 262 822 298 822 q 210 808 226 822 q 191 759 195 794 q 188 660 188 724 l 188 312 q 191 213 188 248 q 210 164 195 178 q 262 150 225 150 q 314 164 298 150 q 332 213 329 178 q 335 312 335 248 l 335 660 m 478 984 q 325 1008 380 1005 q 239 1012 270 1012 q 193 1010 213 1012 q 126 999 147 1005 l 104 992 l 1 1088 l 142 1140 l 158 1124 q 211 1083 174 1107 q 314 1033 249 1059 q 478 984 380 1006 z "},"Ó":{"ha":628,"x_min":-11,"x_max":534,"o":"m 527 826 q 532 799 530 817 q 534 771 534 782 l 534 205 q 506 94 534 144 q 424 14 477 44 q 295 -16 371 -16 l 228 -16 q 99 14 153 -16 q 17 94 45 44 q -11 205 -11 144 l -11 767 q 17 878 -11 828 q 99 958 45 928 q 228 987 153 987 l 295 987 q 449 942 389 987 q 527 826 509 897 m 335 660 q 332 759 335 724 q 313 808 328 794 q 262 822 298 822 q 210 808 226 822 q 191 759 195 794 q 188 660 188 724 l 188 312 q 191 213 188 248 q 210 164 195 178 q 262 150 225 150 q 314 164 298 150 q 332 213 329 178 q 335 312 335 248 l 335 660 m 48 984 q 212 1033 146 1006 q 315 1083 277 1059 q 369 1124 353 1107 l 385 1140 l 526 1088 l 422 992 l 401 999 q 346 1008 379 1005 q 287 1012 313 1012 q 218 1009 256 1012 q 48 984 147 1005 z "},"Ô":{"ha":628,"x_min":-11,"x_max":534,"o":"m 527 826 q 532 799 530 817 q 534 771 534 782 l 534 205 q 506 94 534 144 q 424 14 477 44 q 295 -16 371 -16 l 228 -16 q 99 14 153 -16 q 17 94 45 44 q -11 205 -11 144 l -11 767 q 17 878 -11 828 q 99 958 45 928 q 228 987 153 987 l 295 987 q 449 942 389 987 q 527 826 509 897 m 335 660 q 332 759 335 724 q 313 808 328 794 q 262 822 298 822 q 210 808 226 822 q 191 759 195 794 q 188 660 188 724 l 188 312 q 191 213 188 248 q 210 164 195 178 q 262 150 225 150 q 314 164 298 150 q 332 213 329 178 q 335 312 335 248 l 335 660 m 256 1050 l 231 1046 q 171 1035 206 1043 q 102 1015 136 1027 q 48 983 68 1002 q 98 1032 74 1008 q 138 1072 122 1056 l 154 1088 l 205 1139 l 256 1190 l 358 1088 l 373 1072 q 412 1032 389 1056 q 462 983 436 1008 q 409 1014 443 1001 q 341 1034 376 1026 q 281 1046 306 1042 l 256 1050 z "},"Õ":{"ha":628,"x_min":-11,"x_max":534,"o":"m 335 660 q 332 759 335 724 q 313 808 328 794 q 262 822 298 822 q 210 808 226 822 q 191 759 195 794 q 188 660 188 724 l 188 312 q 191 213 188 248 q 210 164 195 178 q 262 150 225 150 q 314 164 298 150 q 332 213 329 178 q 335 312 335 248 l 335 660 m 384 1113 q 394 1117 390 1113 q 399 1128 399 1122 q 394 1138 399 1134 q 384 1143 390 1143 q 373 1138 378 1143 q 369 1128 369 1134 q 373 1117 369 1122 q 384 1113 378 1113 m 415 1120 q 421 1122 418 1120 q 424 1128 424 1124 q 421 1134 424 1131 q 415 1136 418 1136 q 409 1134 412 1136 q 407 1128 407 1131 q 409 1122 407 1124 q 415 1120 412 1120 m 149 978 q 228 987 185 987 l 295 987 q 449 942 389 987 q 527 826 509 897 q 532 799 530 817 q 534 771 534 782 l 534 205 q 506 94 534 144 q 424 14 477 44 q 295 -16 371 -16 l 228 -16 q 99 14 153 -16 q 17 94 45 44 q -11 205 -11 144 l -11 767 q 18 878 -11 828 q 98 957 45 928 l 98 993 l 78 997 l 5 1165 l 115 1094 l 116 1094 l 117 1095 q 140 1103 120 1096 q 200 1126 165 1113 q 268 1150 235 1139 q 321 1165 301 1161 q 370 1169 347 1169 q 408 1167 392 1169 q 422 1165 418 1166 l 423 1165 l 503 997 l 357 1095 q 357 1094 357 1095 q 339 1082 353 1092 q 294 1052 321 1069 q 239 1019 267 1034 q 192 997 212 1004 q 149 990 171 990 l 149 978 m 115 966 q 136 974 125 970 l 136 989 q 115 991 125 990 l 115 966 z "},"Ö":{"ha":628,"x_min":-11,"x_max":534,"o":"m 527 826 q 532 799 530 817 q 534 771 534 782 l 534 205 q 506 94 534 144 q 424 14 477 44 q 295 -16 371 -16 l 228 -16 q 99 14 153 -16 q 17 94 45 44 q -11 205 -11 144 l -11 767 q 17 878 -11 828 q 99 958 45 928 q 228 987 153 987 l 295 987 q 449 942 389 987 q 527 826 509 897 m 335 660 q 332 759 335 724 q 313 808 328 794 q 262 822 298 822 q 210 808 226 822 q 191 759 195 794 q 188 660 188 724 l 188 312 q 191 213 188 248 q 210 164 195 178 q 262 150 225 150 q 314 164 298 150 q 332 213 329 178 q 335 312 335 248 l 335 660 m 159 991 l 58 1094 l 159 1196 l 261 1094 l 159 991 m 376 991 l 274 1094 l 376 1196 l 477 1094 l 376 991 z "},"×":{"ha":511,"x_min":72,"x_max":437,"o":"m 296 462 l 437 364 l 402 329 l 367 294 l 267 433 l 252 446 l 239 436 l 142 294 l 107 329 l 72 364 l 211 465 l 218 473 l 72 589 l 142 660 l 253 517 l 367 660 l 437 589 l 287 473 l 296 462 z "},"Ø":{"ha":628,"x_min":-10,"x_max":535,"o":"m 528 826 q 533 799 530 817 q 535 771 535 782 l 535 205 q 507 94 535 144 q 425 14 478 44 q 296 -16 372 -16 l 229 -16 q 158 -7 191 -16 l 145 -43 l 52 -10 l 68 36 q -10 205 -10 103 l -10 767 q 18 878 -10 828 q 100 958 46 928 q 229 987 153 987 l 296 987 q 401 968 355 987 l 410 994 l 503 960 l 485 909 q 528 826 515 873 m 189 375 l 331 772 q 310 811 326 800 q 262 822 295 822 q 211 808 227 822 q 192 759 195 794 q 189 660 189 724 l 189 375 m 336 312 l 336 491 l 218 159 q 262 150 233 150 q 314 164 299 150 q 333 213 330 178 q 336 312 336 248 z "},"Ù":{"ha":663,"x_min":1,"x_max":568,"o":"m 369 972 l 568 972 l 568 0 l 240 0 q 111 30 165 0 q 30 110 58 60 q 1 221 1 160 l 1 972 l 200 972 l 200 270 q 229 178 200 195 q 329 163 254 163 q 359 163 343 163 l 369 163 l 369 972 m 498 984 q 345 1008 400 1005 q 260 1012 290 1012 q 213 1010 233 1012 q 146 999 168 1005 l 125 992 l 21 1088 l 162 1140 l 178 1124 q 232 1083 194 1107 q 335 1033 269 1059 q 498 984 400 1006 z "},"Ú":{"ha":663,"x_min":1,"x_max":568,"o":"m 369 972 l 568 972 l 568 0 l 240 0 q 111 30 165 0 q 30 110 58 60 q 1 221 1 160 l 1 972 l 200 972 l 200 270 q 229 178 200 195 q 329 163 254 163 q 359 163 343 163 l 369 163 l 369 972 m 62 984 q 225 1033 160 1006 q 329 1083 291 1059 q 382 1124 366 1107 l 398 1140 l 539 1088 l 435 992 l 414 999 q 360 1008 393 1005 q 300 1012 327 1012 q 231 1009 270 1012 q 62 984 161 1005 z "},"Û":{"ha":663,"x_min":1,"x_max":568,"o":"m 369 972 l 568 972 l 568 0 l 240 0 q 111 30 165 0 q 30 110 58 60 q 1 221 1 160 l 1 972 l 200 972 l 200 270 q 229 178 200 195 q 329 163 254 163 q 359 163 343 163 l 369 163 l 369 972 m 290 1050 l 265 1046 q 205 1035 240 1043 q 136 1015 170 1027 q 82 983 102 1002 q 132 1032 108 1008 q 172 1072 156 1056 l 188 1088 l 239 1139 l 290 1190 l 392 1088 l 407 1072 q 446 1032 422 1056 q 496 983 470 1008 q 443 1014 477 1001 q 375 1034 410 1026 q 315 1046 340 1042 l 290 1050 z "},"Ü":{"ha":663,"x_min":1,"x_max":568,"o":"m 369 972 l 568 972 l 568 0 l 240 0 q 111 30 165 0 q 30 110 58 60 q 1 221 1 160 l 1 972 l 200 972 l 200 270 q 229 178 200 195 q 329 163 254 163 q 359 163 343 163 l 369 163 l 369 972 m 176 991 l 75 1094 l 176 1196 l 278 1094 l 176 991 m 393 991 l 291 1094 l 393 1196 l 494 1094 l 393 991 z "},"Ý":{"ha":667,"x_min":0,"x_max":567,"o":"m 567 972 l 567 441 l 383 307 l 383 0 l 184 0 l 184 307 l 0 441 l 0 972 l 199 972 l 199 541 l 283 480 l 368 541 l 368 972 l 567 972 m 61 984 q 225 1033 159 1006 q 328 1083 290 1059 q 382 1124 366 1107 l 397 1140 l 538 1088 l 435 992 l 414 999 q 359 1008 392 1005 q 300 1012 326 1012 q 231 1009 269 1012 q 61 984 160 1005 z "},"ß":{"ha":671,"x_min":0,"x_max":567,"o":"m 567 751 l 567 601 q 485 530 530 566 q 567 458 530 492 l 567 -57 q 539 -168 567 -118 q 457 -248 511 -218 q 328 -277 404 -277 l 123 -277 l 123 -114 l 244 -114 q 319 -111 289 -114 q 363 -94 349 -109 q 380 -45 377 -79 q 383 50 383 -12 l 383 380 q 336 418 375 387 q 256 483 297 450 q 199 528 215 516 l 199 0 l 0 0 l 0 752 l 1 752 q 30 863 1 813 q 112 942 58 912 q 240 972 165 972 l 328 972 q 457 942 404 972 q 539 862 511 912 q 567 751 567 812 m 199 534 q 270 589 216 547 q 383 679 324 631 l 383 685 q 383 700 383 691 q 382 720 382 709 q 359 791 380 774 q 280 808 338 808 l 279 808 q 211 774 224 806 q 199 677 199 747 l 199 534 z "},"à":{"ha":667,"x_min":-71,"x_max":570,"o":"m 242 972 l 570 972 l 570 0 l 370 0 l 370 296 l 203 307 l 202 307 l 202 0 l 3 0 l 3 289 l -71 457 l 3 457 l 3 751 q 31 862 3 812 q 113 942 60 912 q 242 972 166 972 m 202 457 l 370 457 l 370 808 l 370 808 q 318 809 341 809 q 231 797 254 809 q 202 707 202 781 l 202 457 m 512 984 q 359 1008 414 1005 q 273 1012 304 1012 q 227 1010 247 1012 q 160 999 181 1005 l 138 992 l 35 1088 l 176 1140 l 192 1124 q 245 1083 208 1107 q 348 1033 283 1059 q 512 984 414 1006 z "},"á":{"ha":667,"x_min":-71,"x_max":570,"o":"m 242 972 l 570 972 l 570 0 l 370 0 l 370 296 l 203 307 l 202 307 l 202 0 l 3 0 l 3 289 l -71 457 l 3 457 l 3 751 q 31 862 3 812 q 113 942 60 912 q 242 972 166 972 m 202 457 l 370 457 l 370 808 l 370 808 q 318 809 341 809 q 231 797 254 809 q 202 707 202 781 l 202 457 m 82 984 q 246 1033 180 1006 q 349 1083 311 1059 q 403 1124 387 1107 l 418 1140 l 559 1088 l 456 992 l 435 999 q 380 1008 413 1005 q 321 1012 347 1012 q 252 1009 290 1012 q 82 984 181 1005 z "},"â":{"ha":667,"x_min":-71,"x_max":570,"o":"m 242 972 l 570 972 l 570 0 l 370 0 l 370 296 l 203 307 l 202 307 l 202 0 l 3 0 l 3 289 l -71 457 l 3 457 l 3 751 q 31 862 3 812 q 113 942 60 912 q 242 972 166 972 m 202 457 l 370 457 l 370 808 l 370 808 q 318 809 341 809 q 231 797 254 809 q 202 707 202 781 l 202 457 m 311 1050 l 286 1046 q 225 1035 260 1043 q 156 1015 190 1027 q 102 983 122 1002 q 152 1032 128 1008 q 193 1072 176 1056 l 208 1088 l 260 1139 l 311 1190 l 412 1088 l 427 1072 q 467 1032 443 1056 q 516 983 490 1008 q 464 1014 497 1001 q 395 1034 430 1026 q 335 1046 360 1042 l 311 1050 z "},"ã":{"ha":667,"x_min":-71,"x_max":570,"o":"m 202 457 l 370 457 l 370 808 l 370 808 q 318 809 341 809 q 231 797 254 809 q 202 707 202 781 l 202 457 m 431 1113 q 442 1117 437 1113 q 446 1128 446 1122 q 442 1138 446 1134 q 431 1143 437 1143 q 421 1138 425 1143 q 416 1128 416 1134 q 421 1117 416 1122 q 431 1113 425 1113 m 463 1120 q 469 1122 466 1120 q 471 1128 471 1124 q 469 1134 471 1131 q 463 1136 466 1136 q 457 1134 459 1136 q 454 1128 454 1131 q 457 1122 454 1124 q 463 1120 459 1120 m 197 969 q 242 972 218 972 l 570 972 l 570 0 l 370 0 l 370 296 l 203 307 l 202 307 l 202 0 l 3 0 l 3 289 l -71 457 l 3 457 l 3 751 q 31 862 3 812 q 113 942 60 912 q 146 957 128 951 l 146 993 l 125 997 l 52 1165 l 163 1094 l 163 1094 l 164 1095 q 188 1103 168 1096 q 247 1126 212 1113 q 315 1150 282 1139 q 368 1165 349 1161 q 417 1169 394 1169 q 455 1167 439 1169 q 469 1165 466 1166 l 471 1165 l 550 997 l 405 1095 q 404 1094 404 1095 q 387 1082 401 1092 q 341 1052 368 1069 q 287 1019 315 1034 q 239 997 259 1004 q 197 990 218 990 l 197 969 m 163 962 q 183 966 173 965 l 183 989 q 163 991 172 990 l 163 962 z "},"ä":{"ha":667,"x_min":-71,"x_max":570,"o":"m 242 972 l 570 972 l 570 0 l 370 0 l 370 296 l 203 307 l 202 307 l 202 0 l 3 0 l 3 289 l -71 457 l 3 457 l 3 751 q 31 862 3 812 q 113 942 60 912 q 242 972 166 972 m 202 457 l 370 457 l 370 808 l 370 808 q 318 809 341 809 q 231 797 254 809 q 202 707 202 781 l 202 457 m 197 991 l 95 1094 l 197 1196 l 298 1094 l 197 991 m 413 991 l 311 1094 l 413 1196 l 515 1094 l 413 991 z "},"å":{"ha":667,"x_min":-71,"x_max":570,"o":"m 242 972 l 570 972 l 570 0 l 370 0 l 370 296 l 203 307 l 202 307 l 202 0 l 3 0 l 3 289 l -71 457 l 3 457 l 3 751 q 31 862 3 812 q 113 942 60 912 q 242 972 166 972 m 202 457 l 370 457 l 370 808 l 370 808 q 318 809 341 809 q 231 797 254 809 q 202 707 202 781 l 202 457 m 365 1216 l 428 1106 l 365 997 l 238 997 l 175 1106 l 238 1216 l 365 1216 m 338 1042 l 376 1106 l 338 1171 l 264 1171 l 228 1106 l 264 1042 l 338 1042 z "},"æ":{"ha":967,"x_min":-71,"x_max":873,"o":"m 570 822 l 570 822 l 570 457 l 873 457 l 873 289 l 570 307 l 570 307 l 570 151 l 570 151 l 873 169 l 873 1 l 370 0 l 370 289 l 367 296 l 203 307 l 202 307 l 202 0 l 3 0 l 3 289 l -71 457 l 3 457 l 3 751 q 31 862 3 812 q 113 942 60 912 q 241 972 166 972 l 873 972 l 873 804 l 570 822 m 202 457 l 370 457 l 370 808 l 370 808 q 318 809 341 809 q 231 797 254 809 q 202 707 202 781 l 202 457 z "},"ç":{"ha":519,"x_min":-6,"x_max":450,"o":"m 193 822 l 193 822 l 193 270 q 220 178 193 195 q 315 163 244 163 q 350 164 331 163 l 450 164 l 450 0 l 254 0 l 254 -32 l 293 -32 l 365 -155 l 293 -279 l 150 -279 l 98 -189 l 157 -155 l 189 -212 l 254 -212 l 286 -155 l 254 -100 l 189 -100 l 189 3 q 45 78 96 18 q -6 221 -6 138 l -6 972 l 450 972 l 450 804 l 193 822 z "},"è":{"ha":591,"x_min":-71,"x_max":506,"o":"m 506 804 l 201 822 l 201 457 l 506 457 l 506 289 l 201 307 l 201 151 l 506 169 l 506 1 l 201 1 l 3 0 l 3 289 l -71 457 l 3 457 l 3 972 l 506 972 l 506 804 m 492 984 q 338 1008 393 1005 q 253 1012 283 1012 q 206 1010 227 1012 q 140 999 161 1005 l 118 992 l 14 1088 l 155 1140 l 172 1124 q 225 1083 187 1107 q 328 1033 262 1059 q 492 984 393 1006 z "},"é":{"ha":591,"x_min":-71,"x_max":506,"o":"m 506 804 l 201 822 l 201 457 l 506 457 l 506 289 l 201 307 l 201 151 l 506 169 l 506 1 l 201 1 l 3 0 l 3 289 l -71 457 l 3 457 l 3 972 l 506 972 l 506 804 m 21 984 q 185 1033 119 1006 q 288 1083 250 1059 q 342 1124 326 1107 l 357 1140 l 498 1088 l 395 992 l 374 999 q 319 1008 352 1005 q 260 1012 286 1012 q 191 1009 229 1012 q 21 984 120 1005 z "},"ê":{"ha":591,"x_min":-71,"x_max":506,"o":"m 506 804 l 201 822 l 201 457 l 506 457 l 506 289 l 201 307 l 201 151 l 506 169 l 506 1 l 201 1 l 3 0 l 3 289 l -71 457 l 3 457 l 3 972 l 506 972 l 506 804 m 250 1050 l 224 1046 q 164 1035 199 1043 q 95 1015 129 1027 q 41 983 61 1002 q 91 1032 67 1008 q 132 1072 115 1056 l 147 1088 l 199 1139 l 250 1190 l 351 1088 l 366 1072 q 406 1032 382 1056 q 455 983 429 1008 q 402 1014 436 1001 q 334 1034 369 1026 q 274 1046 299 1042 l 250 1050 z "},"ë":{"ha":591,"x_min":-71,"x_max":506,"o":"m 506 804 l 201 822 l 201 457 l 506 457 l 506 289 l 201 307 l 201 151 l 506 169 l 506 1 l 201 1 l 3 0 l 3 289 l -71 457 l 3 457 l 3 972 l 506 972 l 506 804 m 149 991 l 47 1094 l 149 1196 l 251 1094 l 149 991 m 366 991 l 264 1094 l 366 1196 l 467 1094 l 366 991 z "},"ì":{"ha":452,"x_min":-67,"x_max":410,"o":"m 370 836 l 269 840 l 269 142 l 370 140 l 370 0 l -1 0 l -60 126 l 70 136 l 70 840 l -1 837 l -60 971 l 370 972 l 370 836 m 410 984 q 257 1008 312 1005 q 172 1012 202 1012 q 125 1010 145 1012 q 58 999 79 1005 l 37 992 l -67 1088 l 74 1140 l 90 1124 q 143 1083 106 1107 q 247 1033 181 1059 q 410 984 312 1006 z "},"í":{"ha":452,"x_min":-60,"x_max":424,"o":"m 370 836 l 269 840 l 269 142 l 370 140 l 370 0 l -1 0 l -60 126 l 70 136 l 70 840 l -1 837 l -60 971 l 370 972 l 370 836 m -54 984 q 110 1033 45 1006 q 213 1083 176 1059 q 267 1124 251 1107 l 283 1140 l 424 1088 l 320 992 l 299 999 q 244 1008 277 1005 q 185 1012 212 1012 q 116 1009 155 1012 q -54 984 45 1005 z "},"î":{"ha":452,"x_min":-60,"x_max":370,"o":"m 370 836 l 269 840 l 269 142 l 370 140 l 370 0 l -1 0 l -60 126 l 70 136 l 70 840 l -1 837 l -60 971 l 370 972 l 370 836 m 161 1050 l 136 1046 q 76 1035 111 1043 q 7 1015 41 1027 q -47 983 -27 1002 q 3 1032 -21 1008 q 43 1072 27 1056 l 59 1088 l 111 1139 l 161 1190 l 263 1088 l 278 1072 q 317 1032 294 1056 q 367 983 341 1008 q 314 1014 348 1001 q 246 1034 281 1026 q 186 1046 211 1042 l 161 1050 z "},"ï":{"ha":452,"x_min":-60,"x_max":379,"o":"m 370 836 l 269 840 l 269 142 l 370 140 l 370 0 l -1 0 l -60 126 l 70 136 l 70 840 l -1 837 l -60 971 l 370 972 l 370 836 m 61 991 l -41 1094 l 61 1196 l 163 1094 l 61 991 m 277 991 l 176 1094 l 277 1196 l 379 1094 l 277 991 z "},"ñ":{"ha":637,"x_min":1,"x_max":539,"o":"m 397 1113 q 408 1117 404 1113 q 412 1128 412 1122 q 408 1138 412 1134 q 397 1143 404 1143 q 387 1138 391 1143 q 382 1128 382 1134 q 387 1117 382 1122 q 397 1113 391 1113 m 429 1120 q 435 1122 432 1120 q 437 1128 437 1124 q 435 1134 437 1131 q 429 1136 432 1136 q 423 1134 425 1136 q 420 1128 420 1131 q 423 1122 420 1124 q 429 1120 425 1120 m 163 972 l 193 972 l 197 967 l 340 778 l 340 972 l 539 972 l 539 0 l 340 0 l 340 490 l 197 681 l 197 0 l 1 0 l 1 973 l 112 972 l 112 993 l 92 997 l 18 1165 l 129 1094 l 130 1094 l 130 1095 q 154 1103 134 1096 q 213 1126 178 1113 q 281 1150 248 1139 q 334 1165 315 1161 q 383 1169 360 1169 q 421 1167 406 1169 q 435 1165 432 1166 l 437 1165 l 516 997 l 371 1095 q 370 1094 370 1095 q 353 1082 367 1092 q 308 1052 334 1069 q 253 1019 281 1034 q 205 997 225 1004 q 163 990 184 990 l 163 972 m 129 972 l 149 972 l 149 989 q 129 991 138 990 l 129 972 z "},"ò":{"ha":628,"x_min":-11,"x_max":534,"o":"m 527 826 q 532 799 530 817 q 534 771 534 782 l 534 205 q 506 94 534 144 q 424 14 477 44 q 295 -16 371 -16 l 228 -16 q 99 14 153 -16 q 17 94 45 44 q -11 205 -11 144 l -11 767 q 17 878 -11 828 q 99 958 45 928 q 228 987 153 987 l 295 987 q 449 942 389 987 q 527 826 509 897 m 335 660 q 332 759 335 724 q 313 808 328 794 q 262 822 298 822 q 210 808 226 822 q 191 759 195 794 q 188 660 188 724 l 188 312 q 191 213 188 248 q 210 164 195 178 q 262 150 225 150 q 314 164 298 150 q 332 213 329 178 q 335 312 335 248 l 335 660 m 478 984 q 325 1008 380 1005 q 239 1012 270 1012 q 193 1010 213 1012 q 126 999 147 1005 l 104 992 l 1 1088 l 142 1140 l 158 1124 q 211 1083 174 1107 q 314 1033 249 1059 q 478 984 380 1006 z "},"ó":{"ha":628,"x_min":-11,"x_max":534,"o":"m 527 826 q 532 799 530 817 q 534 771 534 782 l 534 205 q 506 94 534 144 q 424 14 477 44 q 295 -16 371 -16 l 228 -16 q 99 14 153 -16 q 17 94 45 44 q -11 205 -11 144 l -11 767 q 17 878 -11 828 q 99 958 45 928 q 228 987 153 987 l 295 987 q 449 942 389 987 q 527 826 509 897 m 335 660 q 332 759 335 724 q 313 808 328 794 q 262 822 298 822 q 210 808 226 822 q 191 759 195 794 q 188 660 188 724 l 188 312 q 191 213 188 248 q 210 164 195 178 q 262 150 225 150 q 314 164 298 150 q 332 213 329 178 q 335 312 335 248 l 335 660 m 48 984 q 212 1033 146 1006 q 315 1083 277 1059 q 369 1124 353 1107 l 385 1140 l 526 1088 l 422 992 l 401 999 q 346 1008 379 1005 q 287 1012 313 1012 q 218 1009 256 1012 q 48 984 147 1005 z "},"ô":{"ha":628,"x_min":-11,"x_max":534,"o":"m 527 826 q 532 799 530 817 q 534 771 534 782 l 534 205 q 506 94 534 144 q 424 14 477 44 q 295 -16 371 -16 l 228 -16 q 99 14 153 -16 q 17 94 45 44 q -11 205 -11 144 l -11 767 q 17 878 -11 828 q 99 958 45 928 q 228 987 153 987 l 295 987 q 449 942 389 987 q 527 826 509 897 m 335 660 q 332 759 335 724 q 313 808 328 794 q 262 822 298 822 q 210 808 226 822 q 191 759 195 794 q 188 660 188 724 l 188 312 q 191 213 188 248 q 210 164 195 178 q 262 150 225 150 q 314 164 298 150 q 332 213 329 178 q 335 312 335 248 l 335 660 m 256 1050 l 231 1046 q 171 1035 206 1043 q 102 1015 136 1027 q 48 983 68 1002 q 98 1032 74 1008 q 138 1072 122 1056 l 154 1088 l 205 1139 l 256 1190 l 358 1088 l 373 1072 q 412 1032 389 1056 q 462 983 436 1008 q 409 1014 443 1001 q 341 1034 376 1026 q 281 1046 306 1042 l 256 1050 z "},"õ":{"ha":628,"x_min":-11,"x_max":534,"o":"m 335 660 q 332 759 335 724 q 313 808 328 794 q 262 822 298 822 q 210 808 226 822 q 191 759 195 794 q 188 660 188 724 l 188 312 q 191 213 188 248 q 210 164 195 178 q 262 150 225 150 q 314 164 298 150 q 332 213 329 178 q 335 312 335 248 l 335 660 m 384 1113 q 394 1117 390 1113 q 399 1128 399 1122 q 394 1138 399 1134 q 384 1143 390 1143 q 373 1138 378 1143 q 369 1128 369 1134 q 373 1117 369 1122 q 384 1113 378 1113 m 415 1120 q 421 1122 418 1120 q 424 1128 424 1124 q 421 1134 424 1131 q 415 1136 418 1136 q 409 1134 412 1136 q 407 1128 407 1131 q 409 1122 407 1124 q 415 1120 412 1120 m 149 978 q 228 987 185 987 l 295 987 q 449 942 389 987 q 527 826 509 897 q 532 799 530 817 q 534 771 534 782 l 534 205 q 506 94 534 144 q 424 14 477 44 q 295 -16 371 -16 l 228 -16 q 99 14 153 -16 q 17 94 45 44 q -11 205 -11 144 l -11 767 q 18 878 -11 828 q 98 957 45 928 l 98 993 l 78 997 l 5 1165 l 115 1094 l 116 1094 l 117 1095 q 140 1103 120 1096 q 200 1126 165 1113 q 268 1150 235 1139 q 321 1165 301 1161 q 370 1169 347 1169 q 408 1167 392 1169 q 422 1165 418 1166 l 423 1165 l 503 997 l 357 1095 q 357 1094 357 1095 q 339 1082 353 1092 q 294 1052 321 1069 q 239 1019 267 1034 q 192 997 212 1004 q 149 990 171 990 l 149 978 m 115 966 q 136 974 125 970 l 136 989 q 115 991 125 990 l 115 966 z "},"ö":{"ha":628,"x_min":-11,"x_max":534,"o":"m 527 826 q 532 799 530 817 q 534 771 534 782 l 534 205 q 506 94 534 144 q 424 14 477 44 q 295 -16 371 -16 l 228 -16 q 99 14 153 -16 q 17 94 45 44 q -11 205 -11 144 l -11 767 q 17 878 -11 828 q 99 958 45 928 q 228 987 153 987 l 295 987 q 449 942 389 987 q 527 826 509 897 m 335 660 q 332 759 335 724 q 313 808 328 794 q 262 822 298 822 q 210 808 226 822 q 191 759 195 794 q 188 660 188 724 l 188 312 q 191 213 188 248 q 210 164 195 178 q 262 150 225 150 q 314 164 298 150 q 332 213 329 178 q 335 312 335 248 l 335 660 m 159 991 l 58 1094 l 159 1196 l 261 1094 l 159 991 m 376 991 l 274 1094 l 376 1196 l 477 1094 l 376 991 z "},"÷":{"ha":571,"x_min":3,"x_max":490,"o":"m 3 427 l 3 527 l 292 495 l 490 527 l 490 427 l 292 455 l 3 427 m 250 810 l 375 686 l 250 560 l 125 686 l 250 810 m 250 385 l 375 260 l 250 134 l 125 260 l 250 385 z "},"ø":{"ha":628,"x_min":-10,"x_max":535,"o":"m 528 826 q 533 799 530 817 q 535 771 535 782 l 535 205 q 507 94 535 144 q 425 14 478 44 q 296 -16 372 -16 l 229 -16 q 158 -7 191 -16 l 145 -43 l 52 -10 l 68 36 q -10 205 -10 103 l -10 767 q 18 878 -10 828 q 100 958 46 928 q 229 987 153 987 l 296 987 q 401 968 355 987 l 410 994 l 503 960 l 485 909 q 528 826 515 873 m 189 375 l 331 772 q 310 811 326 800 q 262 822 295 822 q 211 808 227 822 q 192 759 195 794 q 189 660 189 724 l 189 375 m 336 312 l 336 491 l 218 159 q 262 150 233 150 q 314 164 299 150 q 333 213 330 178 q 336 312 336 248 z "},"ù":{"ha":663,"x_min":1,"x_max":568,"o":"m 369 972 l 568 972 l 568 0 l 240 0 q 111 30 165 0 q 30 110 58 60 q 1 221 1 160 l 1 972 l 200 972 l 200 270 q 229 178 200 195 q 329 163 254 163 q 359 163 343 163 l 369 163 l 369 972 m 498 984 q 345 1008 400 1005 q 260 1012 290 1012 q 213 1010 233 1012 q 146 999 168 1005 l 125 992 l 21 1088 l 162 1140 l 178 1124 q 232 1083 194 1107 q 335 1033 269 1059 q 498 984 400 1006 z "},"ú":{"ha":663,"x_min":1,"x_max":568,"o":"m 369 972 l 568 972 l 568 0 l 240 0 q 111 30 165 0 q 30 110 58 60 q 1 221 1 160 l 1 972 l 200 972 l 200 270 q 229 178 200 195 q 329 163 254 163 q 359 163 343 163 l 369 163 l 369 972 m 62 984 q 225 1033 160 1006 q 329 1083 291 1059 q 382 1124 366 1107 l 398 1140 l 539 1088 l 435 992 l 414 999 q 360 1008 393 1005 q 300 1012 327 1012 q 231 1009 270 1012 q 62 984 161 1005 z "},"û":{"ha":663,"x_min":1,"x_max":568,"o":"m 369 972 l 568 972 l 568 0 l 240 0 q 111 30 165 0 q 30 110 58 60 q 1 221 1 160 l 1 972 l 200 972 l 200 270 q 229 178 200 195 q 329 163 254 163 q 359 163 343 163 l 369 163 l 369 972 m 290 1050 l 265 1046 q 205 1035 240 1043 q 136 1015 170 1027 q 82 983 102 1002 q 132 1032 108 1008 q 172 1072 156 1056 l 188 1088 l 239 1139 l 290 1190 l 392 1088 l 407 1072 q 446 1032 422 1056 q 496 983 470 1008 q 443 1014 477 1001 q 375 1034 410 1026 q 315 1046 340 1042 l 290 1050 z "},"ü":{"ha":663,"x_min":1,"x_max":568,"o":"m 369 972 l 568 972 l 568 0 l 240 0 q 111 30 165 0 q 30 110 58 60 q 1 221 1 160 l 1 972 l 200 972 l 200 270 q 229 178 200 195 q 329 163 254 163 q 359 163 343 163 l 369 163 l 369 972 m 176 991 l 75 1094 l 176 1196 l 278 1094 l 176 991 m 393 991 l 291 1094 l 393 1196 l 494 1094 l 393 991 z "},"ý":{"ha":667,"x_min":0,"x_max":567,"o":"m 567 972 l 567 441 l 383 307 l 383 0 l 184 0 l 184 307 l 0 441 l 0 972 l 199 972 l 199 541 l 283 480 l 368 541 l 368 972 l 567 972 m 61 984 q 225 1033 159 1006 q 328 1083 290 1059 q 382 1124 366 1107 l 397 1140 l 538 1088 l 435 992 l 414 999 q 359 1008 392 1005 q 300 1012 326 1012 q 231 1009 269 1012 q 61 984 160 1005 z "},"ÿ":{"ha":667,"x_min":0,"x_max":567,"o":"m 567 972 l 567 441 l 383 307 l 383 0 l 184 0 l 184 307 l 0 441 l 0 972 l 199 972 l 199 541 l 283 480 l 368 541 l 368 972 l 567 972 m 176 991 l 75 1094 l 176 1196 l 278 1094 l 176 991 m 393 991 l 291 1094 l 393 1196 l 494 1094 l 393 991 z "},"ˆ":{"ha":639,"x_min":102,"x_max":516,"o":"m 311 1050 l 286 1046 q 225 1035 260 1043 q 156 1015 190 1027 q 102 983 122 1002 q 152 1032 128 1008 q 193 1072 176 1056 l 208 1088 l 260 1139 l 311 1190 l 412 1088 l 427 1072 q 467 1032 443 1056 q 516 983 490 1008 q 464 1014 497 1001 q 395 1034 430 1026 q 335 1046 360 1042 l 311 1050 z "},"ˇ":{"ha":639,"x_min":102,"x_max":516,"o":"m 311 1123 l 335 1127 q 395 1139 360 1131 q 464 1160 430 1147 q 516 1190 497 1173 q 467 1141 490 1165 q 427 1101 443 1117 l 412 1085 l 361 1034 l 311 983 l 193 1101 q 152 1141 176 1117 q 102 1190 128 1164 q 156 1159 122 1172 q 225 1138 190 1146 q 286 1126 260 1131 l 311 1123 z "},"ˉ":{"ha":694,"x_min":172,"x_max":522,"o":"m 172 1014 l 172 1099 l 522 1099 l 522 1014 l 172 1014 z "},"˘":{"ha":694,"x_min":149,"x_max":545,"o":"m 149 1173 l 183 1173 q 234 1100 195 1123 q 347 1077 273 1077 q 460 1100 421 1077 q 510 1173 498 1122 l 545 1173 q 481 1036 531 1082 q 347 989 431 989 q 214 1036 264 989 q 149 1173 163 1083 z "},"˙":{"ha":609,"x_min":228,"x_max":376,"o":"m 338 1042 l 264 1042 l 228 1106 l 264 1171 l 338 1171 l 376 1106 l 338 1042 z "},"˚":{"ha":609,"x_min":175,"x_max":428,"o":"m 365 1216 l 428 1106 l 365 997 l 238 997 l 175 1106 l 238 1216 l 365 1216 m 338 1042 l 376 1106 l 338 1171 l 264 1171 l 228 1106 l 264 1042 l 338 1042 z "},"˛":{"ha":694,"x_min":250,"x_max":500,"o":"m 434 0 q 359 -81 386 -42 q 332 -157 332 -120 q 351 -208 332 -189 q 400 -227 369 -227 q 447 -217 427 -227 q 481 -184 467 -206 l 500 -195 q 438 -260 475 -237 q 357 -283 401 -283 q 280 -259 310 -283 q 250 -198 250 -235 q 291 -92 250 -146 q 401 0 332 -37 l 434 0 z "},"˜":{"ha":533,"x_min":18,"x_max":516,"o":"m 437 1165 l 516 997 l 371 1095 l 353 1082 q 308 1052 334 1069 q 253 1019 281 1034 q 205 997 225 1004 q 163 990 184 990 l 163 949 l 149 949 l 149 989 q 129 991 138 990 l 129 949 l 112 949 l 112 993 l 92 997 l 18 1165 l 129 1094 l 154 1103 q 213 1126 178 1113 q 281 1150 248 1139 q 334 1165 315 1161 q 382 1169 360 1169 q 421 1167 406 1169 l 437 1165 m 397 1113 q 408 1117 404 1113 q 412 1128 412 1122 q 408 1138 412 1134 q 397 1143 404 1143 q 387 1138 391 1143 q 382 1128 382 1134 q 387 1117 382 1122 q 397 1113 391 1113 m 429 1120 q 435 1122 432 1120 q 437 1128 437 1124 q 435 1134 437 1131 q 429 1136 432 1136 q 423 1134 425 1136 q 420 1128 420 1131 q 423 1122 420 1124 q 429 1120 425 1120 z "},"˝":{"ha":694,"x_min":40,"x_max":648,"o":"m 40 980 q 104 1019 55 985 q 195 1089 163 1057 q 239 1139 227 1120 l 252 1158 l 400 1135 l 318 1021 l 304 1022 q 280 1023 289 1023 q 228 1020 260 1023 q 116 997 183 1015 q 41 979 58 981 l 40 980 m 288 980 q 353 1019 302 985 q 443 1089 411 1057 q 488 1139 475 1120 l 500 1158 l 648 1135 l 566 1021 l 552 1022 q 528 1023 537 1023 q 476 1020 508 1023 q 364 997 431 1015 q 288 979 305 981 l 288 980 z "},"‘":{"ha":322,"x_min":54,"x_max":268,"o":"m 205 1061 l 180 960 l 268 875 l 142 749 l 80 812 l 76 817 q 67 832 72 823 q 58 852 62 841 q 54 875 54 863 q 58 897 54 886 q 67 917 62 908 q 76 932 72 926 l 80 937 l 205 1061 z "},"’":{"ha":322,"x_min":22,"x_max":237,"o":"m 85 689 l 110 790 l 22 876 l 147 1001 l 210 939 l 214 933 q 223 919 218 928 q 233 898 229 909 q 237 876 237 887 q 233 853 237 865 q 223 833 229 842 q 214 819 218 825 l 210 814 l 85 689 z "},"‚":{"ha":296,"x_min":7,"x_max":221,"o":"m 69 -79 l 94 22 l 7 108 l 132 233 l 194 170 l 198 165 q 208 150 202 159 q 217 130 213 141 q 221 108 221 119 q 217 85 221 96 q 208 65 213 74 q 198 51 202 56 l 194 45 l 69 -79 z "},"“":{"ha":564,"x_min":54,"x_max":503,"o":"m 205 1061 l 180 960 l 268 875 l 142 749 l 80 812 l 76 817 q 67 832 72 823 q 58 852 62 841 q 54 875 54 863 q 58 897 54 886 q 67 917 62 908 q 76 932 72 926 l 80 937 l 205 1061 m 441 1061 l 415 960 l 503 875 l 378 749 l 315 812 l 311 817 q 302 832 307 823 q 293 852 297 841 q 289 875 289 863 q 293 897 289 886 q 302 917 297 908 q 311 932 307 926 l 315 937 l 441 1061 z "},"”":{"ha":526,"x_min":22,"x_max":481,"o":"m 85 689 l 110 790 l 22 876 l 147 1001 l 210 939 l 214 933 q 223 919 218 928 q 233 898 229 909 q 237 876 237 887 q 233 853 237 865 q 223 833 229 842 q 214 819 218 825 l 210 814 l 85 689 m 329 689 l 354 790 l 267 876 l 391 1001 l 454 939 l 458 933 q 467 919 462 928 q 477 898 473 909 q 481 876 481 887 q 477 853 481 865 q 467 833 473 842 q 458 819 462 825 l 454 814 l 329 689 z "},"„":{"ha":533,"x_min":7,"x_max":463,"o":"m 69 -79 l 94 22 l 7 108 l 132 233 l 194 170 l 198 165 q 208 150 202 159 q 217 130 213 141 q 221 108 221 119 q 217 85 221 96 q 208 65 213 74 q 198 51 202 56 l 194 45 l 69 -79 m 311 -79 l 336 22 l 249 108 l 374 233 l 436 170 l 440 165 q 450 150 444 159 q 459 130 455 141 q 463 108 463 119 q 459 85 463 96 q 450 65 455 74 q 440 51 444 56 l 436 45 l 311 -79 z "},"•":{"ha":590,"x_min":80,"x_max":468,"o":"m 155 459 l 155 448 q 140 435 147 440 l 140 477 l 144 477 q 153 474 151 477 q 155 459 155 472 m 228 477 l 228 439 l 210 439 l 210 465 q 213 475 210 473 q 222 477 216 477 l 228 477 m 80 692 l 468 692 l 468 304 l 80 304 l 80 692 m 116 656 l 116 635 l 430 635 l 430 656 l 116 656 m 357 469 q 360 476 357 475 q 372 477 363 477 l 373 477 l 373 455 l 390 454 l 393 494 l 362 494 q 343 488 350 494 q 336 471 336 481 l 336 448 l 374 420 l 374 419 q 372 408 374 410 q 365 407 370 407 l 355 407 l 353 425 l 336 427 l 336 389 l 368 389 q 387 396 380 389 q 393 413 393 403 l 393 433 l 356 460 l 356 461 q 356 463 356 462 q 356 466 356 465 q 357 469 356 467 m 367 595 l 367 610 l 334 610 l 334 610 l 320 610 l 327 595 l 334 596 l 334 519 l 320 518 l 327 505 l 367 505 l 367 519 l 356 520 l 356 596 l 367 595 m 262 413 q 269 396 262 403 q 288 389 275 389 l 323 389 l 323 494 l 302 494 l 302 407 l 296 407 q 286 409 289 407 q 283 419 283 410 l 283 494 l 262 494 l 262 413 m 261 523 l 261 505 l 316 505 l 316 523 l 284 521 l 298 551 l 313 549 l 321 567 l 305 567 l 316 590 l 316 610 l 261 610 l 261 592 l 294 594 l 281 567 l 261 567 l 261 549 l 273 549 l 261 523 m 210 422 l 228 421 l 228 389 l 250 389 l 250 494 l 214 494 q 195 488 202 494 q 188 471 188 481 l 188 439 l 180 439 l 188 420 l 188 389 l 210 389 l 210 422 l 210 422 m 229 505 l 251 505 l 251 610 l 215 610 q 196 603 203 610 q 189 586 189 596 l 189 554 l 181 554 l 189 536 l 189 505 l 211 505 l 211 538 l 229 536 l 229 505 m 139 610 l 118 610 l 118 505 l 139 505 l 139 578 l 155 557 l 155 505 l 176 505 l 176 610 l 155 610 l 155 589 l 139 610 m 118 494 l 118 389 l 140 389 l 140 412 q 146 416 143 414 l 154 389 l 176 389 l 165 431 q 175 439 171 435 l 175 471 q 168 488 175 481 q 149 494 161 494 l 118 494 m 430 342 l 430 362 l 116 362 l 116 342 l 430 342 m 416 386 l 430 399 l 416 414 l 403 399 l 416 386 m 406 494 l 407 420 l 426 420 l 427 494 l 406 494 m 430 528 l 430 549 l 393 575 l 393 576 q 393 578 393 577 q 393 582 393 580 q 393 584 393 583 q 396 591 393 590 q 404 592 398 592 l 410 592 l 410 570 l 427 569 l 429 610 l 399 610 q 380 603 387 610 q 373 586 373 596 l 373 564 l 410 536 l 410 535 q 408 524 410 526 q 401 522 406 522 l 392 522 l 390 541 l 373 543 l 373 505 l 404 505 q 423 512 416 505 q 430 528 430 519 m 211 583 q 214 591 211 590 q 222 592 216 592 l 229 592 l 229 554 l 211 554 l 211 583 z "},"…":{"ha":895,"x_min":3,"x_max":795,"o":"m 128 233 l 253 108 l 128 -18 l 3 108 l 128 233 m 399 233 l 524 108 l 399 -18 l 274 108 l 399 233 m 671 233 l 795 108 l 671 -18 l 545 108 l 671 233 z "},"‹":{"ha":291,"x_min":22,"x_max":230,"o":"m 163 471 l 167 446 q 178 386 170 421 q 199 318 186 351 q 230 266 212 285 q 180 315 204 292 q 140 354 157 338 l 124 369 l 22 471 l 73 522 l 124 573 l 140 589 q 180 629 157 605 q 230 679 204 653 q 198 625 211 659 q 178 556 186 591 q 166 496 170 521 l 163 471 z "},"›":{"ha":319,"x_min":43,"x_max":250,"o":"m 110 471 l 106 496 q 95 556 103 521 q 74 625 87 591 q 43 679 62 659 q 92 629 68 653 q 132 589 116 605 l 149 573 l 199 522 l 250 471 l 149 369 l 132 354 q 92 315 116 338 q 43 266 68 292 q 74 318 61 285 q 94 386 86 351 q 106 446 102 421 l 110 471 z "},"⁄":{"ha":526,"x_min":1,"x_max":453,"o":"m 95 -34 l 1 -1 l 359 1002 l 453 969 l 95 -34 z "},"∕":{"ha":526,"x_min":1,"x_max":453,"o":"m 95 -34 l 1 -1 l 359 1002 l 453 969 l 95 -34 z "},"€":{"ha":705,"x_min":-64,"x_max":593,"o":"m 593 203 q 565 92 593 142 q 483 12 536 41 q 354 -18 429 -18 l 288 -18 q 159 12 212 -18 q 77 92 106 41 q 49 203 49 142 l 47 379 l -64 370 l -64 469 l 138 450 q 177 481 157 465 q 136 516 157 498 l -64 499 l -64 598 l 47 588 l 47 765 q 48 782 47 774 q 81 885 52 840 q 163 958 111 931 q 286 985 215 985 l 353 985 q 481 956 428 985 q 563 876 534 926 q 591 764 591 825 l 591 659 l 391 659 l 391 694 q 379 789 391 762 q 319 819 368 817 q 262 784 277 815 q 248 698 248 753 q 247 665 247 683 q 276 642 258 656 q 312 612 294 627 q 345 587 331 597 l 357 576 l 591 598 l 591 499 l 433 512 q 468 481 450 497 q 436 454 452 468 l 591 469 l 591 370 l 358 390 l 345 380 q 313 354 332 369 q 277 325 295 339 q 248 302 259 310 q 248 281 248 296 q 249 252 248 267 q 250 227 249 237 q 267 167 252 184 q 321 148 281 150 q 382 179 369 151 q 393 272 393 205 l 393 313 l 593 312 l 593 203 z "},"№":{"ha":1270,"x_min":1,"x_max":1180,"o":"m 869 212 l 669 193 l 595 361 l 1172 361 l 1172 193 l 869 212 m 1107 163 l 1180 -5 l 604 -5 l 604 163 l 907 144 l 1107 163 m 865 413 q 736 443 790 413 q 655 523 683 473 q 627 633 627 572 l 627 767 q 655 878 627 828 q 736 958 683 928 q 865 987 790 987 l 932 987 q 1062 958 1008 987 q 1143 878 1115 928 q 1172 767 1171 829 l 1172 633 q 1143 523 1172 572 q 1062 443 1115 473 q 932 413 1008 413 l 865 413 m 899 822 q 838 795 851 822 q 826 707 826 770 l 826 687 q 838 604 826 629 q 899 578 850 578 q 961 606 951 578 q 970 690 970 629 q 969 715 970 702 l 968 767 q 948 809 964 795 q 899 822 932 822 m 342 779 l 342 969 l 541 969 l 541 -2 l 342 -2 l 342 488 l 197 679 l 197 -2 l 1 -2 l 1 972 l 197 972 l 197 970 l 198 972 l 342 779 z "},"™":{"ha":680,"x_min":1,"x_max":574,"o":"m 182 838 q 199 850 193 838 l 216 841 q 200 825 210 831 q 180 820 191 820 q 151 831 161 820 q 139 862 139 842 q 151 893 139 882 q 179 905 161 905 q 215 885 204 905 l 197 876 q 190 884 194 882 q 182 886 186 886 q 163 862 163 886 q 168 845 163 851 q 182 838 172 838 m 437 913 q 418 932 418 913 q 437 951 418 951 q 457 932 457 951 q 437 913 457 913 m 466 905 q 472 903 469 905 q 475 897 475 901 l 475 841 l 459 841 l 459 774 l 416 774 l 416 841 l 401 841 l 401 897 q 404 903 401 901 q 410 905 406 905 l 466 905 m 103 838 q 120 850 115 838 l 136 841 q 122 825 131 831 q 100 820 112 820 q 71 831 83 820 q 60 862 60 842 q 71 893 60 882 q 100 905 83 905 q 136 885 125 905 l 118 876 q 111 884 115 882 q 103 886 106 886 q 85 862 85 886 q 90 845 85 851 q 103 838 94 838 m 218 784 q 250 862 250 815 q 241 905 250 885 q 217 941 233 925 q 138 974 184 974 q 59 941 92 974 q 35 905 43 925 q 26 862 26 884 q 35 820 26 840 q 59 783 43 800 q 96 760 75 768 q 138 751 116 751 q 180 760 160 751 q 218 784 201 768 m 517 785 q 550 863 550 816 q 517 942 550 909 q 438 975 484 975 q 359 942 391 975 q 326 863 326 908 q 359 784 326 817 q 438 751 392 751 q 517 785 484 751 m 235 959 q 264 915 254 939 q 274 862 274 890 q 264 810 274 834 q 235 766 254 785 q 190 736 215 747 q 138 726 165 726 q 86 736 111 726 q 41 766 61 747 q 12 810 22 786 q 1 862 1 835 q 12 914 1 889 q 42 959 22 939 q 138 999 81 999 q 235 959 195 999 m 534 960 q 574 863 574 920 q 535 767 574 805 q 437 726 494 726 q 342 766 382 726 q 301 863 301 807 q 342 960 301 919 q 437 999 381 999 q 534 960 495 999 z "},"−":{"ha":505,"x_min":3,"x_max":421,"o":"m 3 427 l 3 527 l 252 495 l 421 527 l 421 427 l 252 455 l 3 427 z "},"":{"ha":728,"x_min":0,"x_max":0,"o":""},"ﬁ":{"ha":728,"x_min":0,"x_max":0,"o":""},"":{"ha":733,"x_min":0,"x_max":0,"o":""},"ﬂ":{"ha":733,"x_min":0,"x_max":0,"o":""}}}
